<svg width="618" height="719" viewBox="0 0 618 719" fill="none" xmlns="http://www.w3.org/2000/svg">
<path d="M35.942 705.82H191.809C192.152 712.763 197.882 718.216 204.835 718.216C205.272 718.216 205.725 718.216 206.163 718.143L605.603 677.017C612.243 676.32 617.28 670.715 617.269 664.038V463.705V462.976C617.519 459.325 616.046 455.767 613.285 453.366L499.536 354.506C495.567 351.085 489.942 350.35 485.229 352.642L319.296 433.897V392.058C319.238 288.605 293.801 186.751 245.213 95.4179C252.01 92.8501 257.864 88.2772 261.994 82.3085C266.13 76.3345 268.349 69.2408 268.359 61.9805V35.7299C268.343 26.2559 264.578 17.1779 257.88 10.4792C251.182 3.77613 242.098 0.0104 232.629 0H86.6824C77.2084 0.0104173 68.1304 3.776 61.4317 10.4792C54.7339 17.1771 50.9629 26.2552 50.9525 35.7299V61.9805C50.9577 69.2409 53.1765 76.3299 57.3067 82.3032C61.4369 88.2772 67.2911 92.8501 74.0827 95.4177C25.4947 186.751 0.056 288.604 0 392.058V669.884C0.0104173 679.41 3.80214 688.546 10.5416 695.286C17.2812 702.02 26.4163 705.812 35.9483 705.817L35.942 705.82ZM593.995 630.919C585.459 629.606 579.162 622.257 579.162 613.621C579.162 604.985 585.459 597.643 593.995 596.329V630.919ZM593.995 572.861C580.011 573.7 567.433 581.648 560.673 593.913C553.912 606.184 553.912 621.064 560.673 633.329C567.433 645.6 580.011 653.548 593.995 654.381V654.73L215.115 693.771V514.158L593.969 475.117L593.995 572.861ZM421.915 469.32C422.306 468.132 422.509 466.888 422.514 465.632C422.561 458.341 426.441 451.611 432.723 447.919C439.009 444.221 446.775 444.106 453.171 447.607C459.566 451.112 463.645 457.721 463.915 465.008L421.915 469.32ZM501.265 386.867L504.78 389.913H504.775C504.192 390.752 503.129 391.111 502.155 390.799C501.181 390.486 500.525 389.58 500.536 388.559C500.546 387.939 500.812 387.351 501.265 386.924L501.265 386.867ZM484.161 379.096H484.155C481.025 385.257 481.135 392.569 484.447 398.632C487.76 404.699 493.848 408.746 500.723 409.449C507.598 410.153 514.379 407.423 518.849 402.152L577.677 453.283L487.176 462.643C486.062 447.345 477.072 433.725 463.436 426.689C449.806 419.658 433.499 420.22 420.384 428.174C407.27 436.132 399.239 450.335 399.182 465.674C399.192 467.726 399.744 469.741 400.786 471.507L267.386 485.247L484.161 379.096ZM74.374 35.6557H74.3688C74.3792 28.812 79.9209 23.265 86.7647 23.2598H232.645C239.483 23.265 245.03 28.812 245.041 35.6557V61.9064C245.03 68.7501 239.483 74.2918 232.645 74.3022H86.698C79.8543 74.2918 74.3125 68.7501 74.3021 61.9064L74.374 35.6557ZM99.4567 97.6504H220.03C242.817 138.864 260.738 182.582 273.431 227.937C265.718 225.734 260.161 221.869 253.759 217.395C242.572 209.562 229.885 200.698 205.358 200.698C180.827 200.698 168.155 209.563 156.973 217.395C146.999 224.364 139.123 229.864 121.973 229.864C104.822 229.864 96.9207 224.364 86.9727 217.395C78.3997 211.401 68.9314 204.812 53.9567 202.041L53.9515 202.036C65.8004 165.916 81.0088 130.984 99.3781 97.7076L99.4567 97.6504ZM23.342 392.05C23.3681 335.41 31.3056 279.05 46.926 224.597C58.5927 226.055 65.3167 230.837 73.4834 236.555C84.6708 244.373 97.3433 253.238 121.869 253.238C146.399 253.238 159.087 244.374 170.27 236.555C180.228 229.587 188.103 224.071 205.27 224.071C222.437 224.071 230.322 229.581 240.27 236.555C250.01 243.368 260.874 250.962 279.718 252.815C290.494 298.446 295.953 345.165 295.978 392.042V445.302L198.27 493.135C194.036 495.214 191.468 499.641 191.765 504.349V504.859V682.473H35.9515C28.9984 682.462 23.3577 676.827 23.3525 669.874L23.342 392.05Z" fill="#3B8056"/>
<path d="M259.249 575.7C265.41 575.7 271.311 573.252 275.665 568.898C280.018 564.544 282.467 558.637 282.467 552.482C282.467 546.326 280.019 540.419 275.665 536.066C271.31 531.712 265.409 529.264 259.249 529.264C253.092 529.264 247.186 531.712 242.833 536.066C238.479 540.42 236.036 546.326 236.036 552.482C236.041 558.638 238.489 564.539 242.843 568.888C247.197 573.243 253.098 575.691 259.25 575.701L259.249 575.7ZM259.249 552.367C259.321 552.356 259.379 552.413 259.368 552.481C259.379 552.544 259.327 552.601 259.264 552.596C259.196 552.606 259.139 552.549 259.15 552.481C259.139 552.419 259.186 552.361 259.249 552.367Z" fill="#3B8056"/>
<path d="M417.315 618.007C426.018 618.007 434.367 614.553 440.523 608.397C446.674 602.246 450.138 593.897 450.143 585.195C450.143 576.491 446.69 568.143 440.544 561.987C434.393 555.825 426.049 552.361 417.341 552.356C408.638 552.346 400.289 555.794 394.128 561.945C387.967 568.091 384.498 576.434 384.487 585.138C384.487 593.846 387.946 602.201 394.102 608.367C400.253 614.529 408.602 617.998 417.315 618.008V618.007ZM417.315 575.715C421.159 575.715 424.628 578.037 426.091 581.595C427.555 585.152 426.732 589.241 424.003 591.949C421.268 594.657 417.175 595.454 413.628 593.959C410.086 592.464 407.789 588.985 407.82 585.136C407.852 579.912 412.091 575.694 417.315 575.688V575.715Z" fill="#3B8056"/>
<path d="M516.675 533.94C522.248 533.94 527.587 531.726 531.525 527.789C535.467 523.851 537.676 518.508 537.676 512.934C537.676 507.366 535.462 502.023 531.519 498.085C527.582 494.147 522.238 491.939 516.665 491.939C511.097 491.944 505.753 494.158 501.815 498.1C497.878 502.038 495.67 507.382 495.675 512.955C495.68 518.523 497.899 523.856 501.836 527.788C505.774 531.726 511.107 533.935 516.675 533.94ZM516.675 510.607C517.618 510.633 518.457 511.216 518.8 512.096C519.149 512.976 518.931 513.976 518.259 514.638C517.582 515.294 516.576 515.487 515.707 515.117C514.837 514.752 514.269 513.898 514.269 512.955C514.269 512.32 514.524 511.716 514.978 511.273C515.431 510.83 516.045 510.591 516.675 510.607Z" fill="#3B8056"/>
<path d="M266.009 677.26C273.956 677.26 281.577 674.098 287.197 668.479C292.822 662.859 295.978 655.239 295.978 647.291C295.978 639.343 292.822 631.717 287.197 626.097C281.577 620.478 273.957 617.321 266.009 617.321C258.061 617.321 250.435 620.478 244.815 626.097C239.195 631.717 236.039 639.342 236.039 647.291C236.045 655.233 239.206 662.853 244.826 668.473C250.445 674.088 258.06 677.249 266.009 677.26ZM266.009 640.656C268.691 640.656 271.113 642.27 272.139 644.75C273.165 647.229 272.597 650.083 270.701 651.979C268.8 653.88 265.946 654.448 263.467 653.421C260.988 652.39 259.373 649.974 259.373 647.291C259.373 645.531 260.071 643.843 261.316 642.598C262.561 641.354 264.248 640.656 266.009 640.656Z" fill="#3B8056"/>
</svg>
