<svg width="665" height="732" viewBox="0 0 665 732" fill="none" xmlns="http://www.w3.org/2000/svg">
<path d="M456.738 4.01562C456.982 4.01713 457.227 4.02566 457.472 4.04108L456.746 2.58046L456.742 2.57254L456.746 2.57284L459.371 2.7707C459.376 2.77101 459.38 2.77133 459.384 2.77164M456.738 4.01562L460.607 3.60871L460.602 3.59913L459.266 4.26278L459.556 2.80482C459.499 2.79343 459.441 2.78237 459.384 2.77164M456.738 4.01562C456.715 4.01562 456.691 4.01192 456.666 4.00812C456.64 4.00411 456.613 4 456.586 4H456.581C455.685 4 454.79 4.09896 453.899 4.28125L456.738 4.01562ZM459.384 2.77164C458.54 2.61369 457.687 2.52672 456.831 2.51641C456.819 2.51493 456.807 2.5134 456.794 2.51196C456.745 2.50641 456.673 2.5 456.586 2.5H456.581C455.607 2.5 454.642 2.60419 453.692 2.79275C443.096 3.62396 431.849 8.97762 420.352 17.9214C408.806 26.9024 396.9 39.5877 385.007 55.2398C361.526 86.1408 337.976 128.761 317.263 177.73C266.751 133.01 209.409 92.3606 158.592 66.3601C132.925 53.2274 108.863 43.8012 88.1487 39.4967C67.481 35.2018 49.8795 35.9513 37.3748 43.5319C22.808 52.3606 12.9969 72.4841 7.36911 99.8497C1.72169 127.311 0.205603 162.46 2.58022 201.901C7.32999 280.792 27.6629 377.113 61.9545 463.965L63.3497 463.415L61.9545 463.966C79.9858 509.63 108.288 568.545 148.02 616.067C187.751 663.587 239.07 699.895 303.11 699.888C313.851 699.888 324.963 698.812 336.399 696.651C368.344 718.66 408.56 729.762 456.574 729.762H456.579H456.584C528.334 729.762 582.702 705.074 617.908 656.196C648.087 614.307 663.305 555.976 663.305 482.986C663.313 378.209 632.159 259.794 591.233 166.842C570.768 120.362 547.832 80.1839 525.075 51.2295C513.698 36.753 502.335 25.0438 491.314 16.7558C480.309 8.48001 469.547 3.54102 459.384 2.77164ZM456.738 2.51562C456.741 2.51562 456.744 2.5156 456.747 2.51562H456.738ZM249.865 483.015C249.865 515.54 252.956 545.075 258.981 571.606C203.098 499.112 149.037 392.672 109.186 294.865C88.763 244.739 72.0871 196.919 60.8195 157.147C50.528 120.82 44.7976 91.3716 44.7611 73.0223L253.626 417.592C251.223 439.731 249.865 461.661 249.865 483.015ZM310.056 195.365C301.023 218.14 292.659 242.061 285.182 266.673C252.397 224.737 213.667 179.597 176.455 140.837C141.361 104.282 107.533 73.3096 81.2796 56.0849C106.819 60.7011 141.124 75.5185 179.236 98.0724C220.655 122.583 266.417 156.138 310.056 195.365ZM295.275 656.22C301.907 665.42 309.253 673.718 317.241 681.187C255.163 686.704 204.868 654.225 165.459 608.799C125.842 563.135 97.4088 504.579 79.3181 459.103L78.6444 457.397C49.6618 383.994 31.6277 306.192 23.8136 238.75C16.5097 175.712 18.1595 121.931 27.9991 89.2636C34.0527 142.066 64.4204 238.748 107.696 338.579C152.939 442.946 212.423 551.066 273.307 616.39C279.455 630.899 286.683 644.298 295.275 656.22ZM401.762 705.796C362.84 696.503 332.117 676.554 310.035 646.046L310.031 646.023L309.826 645.738C282.008 607.131 267.812 552.436 267.812 483.015C267.812 392.519 291.8 293.236 324.11 209.865C340.263 168.187 358.482 130.517 376.799 99.9373C393.11 72.7047 409.451 51.1761 424.421 37.4346C409.053 70.4971 395.684 122.074 385.731 168.071C363.414 271.152 350.083 388.883 350.083 483.028C350.083 555.155 357.488 612.71 372.164 654.01C379.984 676.012 389.863 693.297 401.762 705.796ZM488.762 37.4085C503.727 51.1452 520.065 72.6691 536.375 99.8978C554.692 130.476 572.914 168.148 589.069 209.83C621.384 293.208 645.38 392.503 645.38 483.012C645.39 552.432 631.194 607.128 603.376 645.735L602.733 646.628C580.688 676.79 550.105 696.546 511.44 705.773C523.335 693.274 533.219 675.989 541.04 653.981C555.721 612.691 563.121 555.141 563.121 483.012C563.121 388.867 549.795 271.133 527.473 168.055L526.007 168.372L527.473 168.055C517.511 122.058 504.138 70.4614 488.762 37.4085ZM447.633 30.2227V711.115C419.014 706.719 400.235 681.067 388.121 645.584C375.801 609.496 370.591 563.812 368.804 521.866C364.401 418.71 377.272 305.084 395.033 212.016C403.912 165.486 414.009 124.118 423.771 91.7898C428.652 75.6249 433.445 61.7347 437.953 50.5965C441.395 42.0942 444.652 35.2451 447.633 30.2227ZM525.07 645.579C512.958 681.062 494.182 706.717 465.565 711.115V30.2531C468.548 35.2819 471.806 42.1367 475.249 50.6439C479.759 61.7872 484.552 75.6809 489.433 91.8479C499.194 124.18 509.29 165.547 518.167 212.072C535.923 305.132 548.787 418.736 544.384 521.879C542.597 563.812 537.388 609.492 525.07 645.579ZM257.323 389.085L59.6394 62.9652C67.1928 67.1021 77.2915 74.1641 89.471 83.9853C104.283 95.929 122.085 111.882 141.991 131.437C181.681 170.427 229.698 223.698 279.006 287.982C269.802 321.138 262.381 355.208 257.323 389.085Z" fill="#3B8056" stroke="#3B8056" stroke-width="3"/>
</svg>
