<svg width="934" height="677" viewBox="0 0 934 677" fill="none" xmlns="http://www.w3.org/2000/svg">
<path d="M375.573 502.676C231.906 497.816 83.653 382.389 45.5197 245.409C26.7223 178.387 36.353 115.95 73.025 69.5555C109.697 23.1648 168.462 -2.23119 239.798 0.154147C383.558 5.19575 531.438 120.623 570.225 257.594C579.147 288.015 581.553 319.974 577.288 351.386C576.553 356.449 571.85 359.959 566.788 359.225C561.725 358.49 558.215 353.792 558.949 348.73C562.756 319.875 560.444 290.542 552.168 262.637C516.137 132.725 375.581 23.2499 239.154 18.4899C173.878 16.4743 119.602 38.4792 86.3278 80.8339C53.0465 123.194 45.5305 179.121 62.4011 240.367C99.0731 370.19 239.441 479.661 375.774 484.341H375.769C380.832 484.341 384.936 488.445 384.936 493.507C384.936 498.57 380.832 502.674 375.769 502.674L375.573 502.676Z" fill="#3B8056"/>
<path d="M287.64 240.276C281.171 240.14 274.926 237.885 269.853 233.859C267.926 232.359 266.676 230.145 266.384 227.718C266.093 225.291 266.78 222.848 268.296 220.932C271.421 216.968 277.155 216.276 281.134 219.374C285.353 222.677 288.837 222.031 289.296 221.572H289.291C289.39 221.057 289.39 220.531 289.291 220.015L252.619 89.827V89.8218C250.509 83.5926 246.483 78.1863 241.113 74.3791C235.744 70.577 229.311 68.5666 222.728 68.6447C196.379 71.4207 171.343 81.5562 150.483 97.8901C148.462 99.6245 147.373 102.203 147.55 104.859C148.363 112.578 152.478 119.562 158.826 124.02C160.759 125.525 162.009 127.734 162.3 130.161C162.592 132.588 161.905 135.031 160.384 136.947C157.264 140.911 151.53 141.609 147.55 138.51C136.707 130.687 129.972 118.39 129.212 105.046C128.931 96.8114 132.488 88.9205 138.842 83.6818C162.394 65.1765 190.659 53.6458 220.435 50.4005C231.399 49.7911 242.253 52.8483 251.285 59.0879C260.316 65.3327 267.009 74.4053 270.311 84.8746L306.983 215.063H306.989C308.265 218.984 308.254 223.208 306.947 227.125C305.645 231.037 303.119 234.422 299.744 236.792C296.166 239.172 291.937 240.385 287.64 240.276Z" fill="#3B8056"/>
<path d="M317.253 241.289C315.534 241.268 313.816 241.112 312.123 240.83C306.795 239.758 301.847 237.278 297.8 233.653C293.753 230.023 290.753 225.383 289.108 220.2C288.29 217.82 288.483 215.21 289.644 212.981C290.805 210.747 292.831 209.096 295.253 208.403C297.67 207.71 300.269 208.039 302.436 209.315C304.602 210.596 306.149 212.705 306.712 215.158C308.232 219.169 311.686 222.138 315.878 223.044H318.811L389.592 134.205V134.2C391.462 131.533 392.066 128.184 391.243 125.033C389.394 117.283 384.415 110.643 377.494 106.695C348.926 89.1319 317.39 76.9492 284.431 70.7572C280.051 69.4552 275.306 70.4916 271.874 73.5072C269.41 76.6947 268.785 80.9291 270.223 84.6947C271.587 89.5802 268.738 94.6478 263.848 96.0176C258.962 97.3822 253.895 94.528 252.525 89.6427C249.332 79.7834 251.519 68.9707 258.301 61.132C265.926 53.3612 277.03 50.0956 287.639 52.5123C322.811 59.1426 356.462 72.1576 386.937 90.9283C398.395 97.569 406.494 108.767 409.213 121.731C410.983 130.002 408.999 138.627 403.806 145.294L333.025 234.043C329.171 238.767 323.348 241.439 317.254 241.288L317.253 241.289Z" fill="#3B8056"/>
<path d="M455.146 376.062C453.12 376.057 451.157 375.38 449.558 374.14L333.761 283.646C329.448 280.661 326.172 276.411 324.386 271.484C322.594 266.557 322.38 261.198 323.766 256.14C326.568 247.916 334.761 242.785 343.386 243.859L479.999 248.442C491.01 249.026 501.504 253.276 509.811 260.52C518.124 267.765 523.764 277.588 525.838 288.416C528.53 310.542 526.629 332.979 520.249 354.334C518.65 359.245 513.38 361.938 508.468 360.339C503.557 358.745 500.864 353.469 502.463 348.558C508.145 329.615 509.801 309.688 507.322 290.068C505.775 283.745 502.296 278.068 497.364 273.828C492.432 269.584 486.296 266.99 479.817 266.412L343.204 261.735C342.631 261.589 342.032 261.589 341.464 261.735C341.464 262.287 341.464 265.584 345.501 268.792L460.834 359.193C464.391 361.459 465.943 365.86 464.594 369.855C463.251 373.85 459.349 376.411 455.146 376.062Z" fill="#3B8056"/>
<path d="M343.106 261.822C337.606 261.515 332.289 259.728 327.721 256.645C323.153 253.562 319.502 249.301 317.164 244.312C315.393 240.9 314.627 237.056 314.95 233.228C315.278 229.395 316.679 225.739 318.997 222.671C320.419 220.536 322.669 219.093 325.205 218.692C327.742 218.291 330.325 218.973 332.335 220.572C334.346 222.166 335.591 224.536 335.778 227.093C335.96 229.655 335.059 232.176 333.299 234.041C333.205 234.931 333.398 235.832 333.846 236.608C335.726 240.483 339.466 243.119 343.752 243.577C348.815 243.577 352.919 247.681 352.919 252.744C352.919 257.806 348.815 261.911 343.752 261.911L343.106 261.822Z" fill="#3B8056"/>
<path d="M480.733 266.502H479.358C474.29 266.502 470.186 262.398 470.186 257.33C470.186 252.268 474.29 248.164 479.358 248.164C483.494 248.58 487.577 246.935 490.264 243.763C492.389 239.909 492.389 235.237 490.264 231.388C476.347 201.18 457.019 173.773 433.238 150.524C427.634 144.727 419.941 141.425 411.878 141.352C408.597 141.409 405.487 142.8 403.258 145.206C401.768 147.19 399.539 148.482 397.076 148.795C394.612 149.102 392.133 148.404 390.195 146.852C388.258 145.3 387.034 143.029 386.8 140.56C386.565 138.091 387.347 135.633 388.956 133.742C394.367 127.232 402.316 123.362 410.773 123.107C424.257 122.623 437.304 127.93 446.623 137.686C472.065 162.55 492.701 191.888 507.503 224.238C512.341 233.81 511.82 245.216 506.128 254.306C500.247 262.384 490.706 266.967 480.732 266.503L480.733 266.502Z" fill="#3B8056"/>
<path d="M272.427 259.436H271.604L134.91 254.758C123.884 254.227 113.364 249.993 105.046 242.738C96.7234 235.482 91.0983 225.634 89.0676 214.784C85.3594 185.279 90.2291 155.326 103.094 128.514C106.698 121.212 113.459 115.972 121.433 114.3C134.636 111.957 148.204 115.509 158.564 124.019L281.148 219.374C285.465 222.348 288.752 226.598 290.544 231.525C292.335 236.457 292.544 241.822 291.137 246.88C288.309 254.692 280.741 259.775 272.435 259.437L272.427 259.436ZM129.587 131.722C128.29 131.727 126.998 131.884 125.732 132.181C123.066 132.618 120.758 134.279 119.498 136.675C108.316 160.373 104.211 186.795 107.675 212.769C109.175 219.107 112.649 224.81 117.587 229.061C122.529 233.305 128.685 235.884 135.175 236.425L271.788 241.102C272.382 241.3 273.027 241.3 273.621 241.102C273.621 240.644 273.621 237.342 269.496 234.133L147.465 138.508C142.393 134.383 136.122 132.003 129.591 131.722L129.587 131.722Z" fill="#3B8056"/>
<path d="M201.373 379.822C188.904 379.515 177.045 374.39 168.274 365.519C142.821 340.707 122.181 311.394 107.4 279.061C102.566 269.446 103.124 258.003 108.863 248.899C114.962 240.358 125.082 235.629 135.546 236.431C140.608 236.608 144.572 240.858 144.395 245.92C144.218 250.983 139.968 254.941 134.905 254.764C130.775 254.415 126.723 256.045 123.994 259.165C121.874 263.019 121.874 267.691 123.994 271.545C137.822 301.832 157.16 329.28 181.02 352.499C186.588 358.348 194.307 361.665 202.384 361.671C205.624 361.671 208.718 360.306 210.91 357.91L281.692 269.071C281.692 269.071 281.692 267.879 281.233 266.504H281.228C279.275 262.707 275.567 260.129 271.327 259.623C266.265 259.623 262.16 255.519 262.16 250.457C262.16 245.394 266.265 241.29 271.327 241.29C276.838 241.603 282.166 243.405 286.734 246.504C291.302 249.603 294.947 253.884 297.275 258.894C299.031 262.311 299.781 266.16 299.442 269.988C299.098 273.816 297.682 277.473 295.348 280.53L224.66 369.279C219.249 375.805 211.311 379.706 202.843 380.003L201.373 379.822Z" fill="#3B8056"/>
<path d="M384 452.156C383.396 452.244 382.776 452.244 382.167 452.156C364.583 448.301 350.355 435.432 344.76 418.322L308.088 288.041C305.244 279.895 308.26 270.853 315.421 266.041C320.062 263.405 325.406 262.281 330.713 262.822C336.021 263.364 341.026 265.546 345.036 269.067C349.025 272.161 349.765 277.895 346.687 281.9C345.197 283.843 342.994 285.114 340.567 285.421C338.14 285.734 335.687 285.056 333.76 283.551C329.541 280.249 326.151 280.801 325.598 281.26C325.494 281.775 325.494 282.301 325.598 282.817L362.27 413.005C366.005 423.531 374.859 431.417 385.744 433.912C390.806 434.417 394.499 438.932 393.994 443.995C393.489 449.063 388.973 452.755 383.91 452.25L384 452.156Z" fill="#3B8056"/>
<path d="M334.307 450.969C331.973 450.932 329.645 450.719 327.343 450.328C292.203 443.703 258.556 430.75 228.046 412.094C216.608 405.411 208.494 394.239 205.676 381.291C203.973 373.025 205.947 364.422 211.088 357.728C214.228 353.754 219.994 353.077 223.968 356.213C227.942 359.353 228.619 365.119 225.484 369.098C223.567 371.744 222.931 375.103 223.739 378.265C225.619 386.03 230.629 392.666 237.583 396.603C266.145 414.082 297.645 426.234 330.552 432.447C334.964 433.651 339.688 432.546 343.109 429.515C345.542 426.281 346.162 422.036 344.76 418.239C343.245 413.38 345.953 408.208 350.813 406.687C355.672 405.166 360.844 407.875 362.365 412.739C365.516 421.645 364.031 431.537 358.406 439.13C352.781 446.718 343.75 451.021 334.308 450.604L334.307 450.969Z" fill="#3B8056"/>
<path d="M316.973 294.649C312.739 294.805 308.947 292.04 307.806 287.956C306.275 283.967 302.822 281.029 298.64 280.164C297.702 279.763 296.645 279.763 295.707 280.164C292.556 284.097 286.822 284.748 282.869 281.628C280.952 280.112 279.723 277.899 279.447 275.472C279.171 273.045 279.874 270.607 281.4 268.701C283.926 265.758 287.213 263.571 290.905 262.388C294.598 261.211 298.546 261.076 302.306 262.008C307.671 263.092 312.64 265.592 316.708 269.253C320.77 272.914 323.775 277.602 325.411 282.821C326.057 285.17 325.744 287.675 324.541 289.79C323.338 291.904 321.338 293.456 318.994 294.097C318.348 294.373 317.671 294.555 316.973 294.649Z" fill="#3B8056"/>
<path d="M297 557.142C230.885 556.741 166.828 534.137 115.093 492.96C49.6343 442.08 10.3957 374.6 1.49967 297.773C-2.50553 257.341 1.53092 216.513 13.3799 177.642C25.2289 138.778 44.6559 102.642 70.5359 71.3196C73.8485 68.0852 79.0515 67.8248 82.6714 70.7206C86.2859 73.6113 87.1766 78.7414 84.7495 82.6842C60.4162 112.138 42.1349 146.106 30.9682 182.638C19.7963 219.168 15.9522 257.55 19.6505 295.575C27.9942 367.362 64.8478 430.628 126.369 478.935H126.374C161.896 507.883 204.218 527.284 249.333 535.304C294.448 543.324 340.864 539.705 384.186 524.778C386.54 523.752 389.223 523.763 391.572 524.815C393.921 525.862 395.723 527.846 396.535 530.289C397.348 532.726 397.098 535.398 395.848 537.643C394.598 539.893 392.462 541.507 389.962 542.106C359.989 552.117 328.593 557.194 296.993 557.142L297 557.142Z" fill="#3B8056"/>
<path d="M479.36 530.729C467.802 530.599 456.333 528.713 445.344 525.135C417.469 515.765 396.354 492.744 389.417 464.166C386.281 450.359 386.907 435.968 391.229 422.483C395.547 409.004 403.412 396.926 413.989 387.519C463.406 339.383 568.11 345.988 574.71 346.535C641.09 348.462 657.226 368.082 658.876 384.123C661.074 403.743 640.538 421.435 620.918 426.483C569.667 439.504 556.74 463.155 546.287 489.196C540.698 502.118 531.287 513.019 519.328 520.442C507.365 527.869 493.417 531.458 479.36 530.729ZM556.833 364.329C525.937 364.329 460.016 368.454 426.828 401.001H426.822C418.546 408.23 412.364 417.547 408.932 427.985C405.494 438.422 404.927 449.594 407.296 460.323C412.822 482.583 429.25 500.531 450.936 507.995C492.926 521.381 520.524 504.969 529.234 482.782C540.145 455.277 556.739 424.287 616.427 409.433C629.807 405.313 641.454 394.402 640.719 386.151C639.985 377.901 621.651 366.255 573.974 364.881C573.974 364.881 566.916 364.329 556.828 364.329L556.833 364.329Z" fill="#3B8056"/>
<path d="M604.773 676.422C566.71 675.396 529.705 663.709 497.961 642.682C486.774 644.24 456.518 645.156 420.398 617.193C382.164 586.942 384.732 555.496 386.841 544.49C375.299 520.526 370.986 493.714 374.44 467.334C377.893 440.96 388.956 416.157 406.279 395.965C409.799 392.319 415.607 392.22 419.253 395.736C422.899 399.257 422.997 405.064 419.482 408.71C404.132 426.516 394.523 448.543 391.908 471.903C389.289 495.267 393.789 518.872 404.81 539.632C405.679 541.877 405.679 544.362 404.81 546.601C404.81 547.7 395.643 575.117 431.492 602.711C468.164 631.408 496.222 624.44 497.414 624.075H497.408C500.127 623.325 503.033 623.866 505.294 625.543C506.117 626.095 584.048 682.387 662.44 644.981V644.975C663.284 644.6 664.18 644.356 665.102 644.246C666.571 644.246 804.089 623.616 810.595 531.934C811.944 500.846 804.137 470.049 788.131 443.366C785.668 439.168 786.913 433.773 790.975 431.08C793.001 429.726 795.485 429.236 797.881 429.715C800.272 430.2 802.371 431.611 803.72 433.648C822.069 463.637 830.949 498.465 829.204 533.585C821.959 635.814 685.897 660.017 669.484 662.585L669.489 662.58C649.182 671.866 627.088 676.59 604.76 676.424L604.773 676.422Z" fill="#3B8056"/>
<path d="M675.733 565.302C600.738 565.302 565.712 558.609 549.67 541.646L549.665 541.651C542.759 534.032 539.452 523.813 540.592 513.594C543.16 482.422 570.847 473.162 602.847 462.433C610.915 459.683 619.259 456.933 627.878 453.266C648.508 445.292 649.331 432.454 650.342 417.693H650.336C649.722 406.958 653.305 396.406 660.326 388.266C680.681 369.198 731.747 379.099 767.321 399.542C788.498 410.339 804.471 429.157 811.695 451.802C816.357 471.031 813.055 491.333 802.529 508.094C800.143 513.594 770.253 565.302 675.731 565.302L675.733 565.302ZM693.52 396.515C686.291 395.844 679.056 397.729 673.072 401.833C669.832 406.963 668.384 413.026 668.947 419.068C667.848 434.745 666.29 458.308 634.749 470.595C625.583 474.079 617.239 476.923 608.989 479.761C577.265 490.308 560.577 496.725 558.927 515.064C558.073 520.152 559.588 525.356 563.052 529.184C577.448 544.954 630.806 546.97 675.546 546.97C760.629 546.97 785.568 501.126 786.39 499.664L786.396 499.659C794.505 487.096 797.156 471.768 793.729 457.211C787.729 439.32 774.865 424.544 757.974 416.137C738.412 404.429 716.281 397.695 693.521 396.517L693.52 396.515Z" fill="#3B8056"/>
<path d="M435.16 557.409C421.447 557.325 407.785 555.664 394.452 552.461C389.389 551.32 386.207 546.294 387.348 541.226C388.489 536.164 393.515 532.982 398.577 534.122C481.093 553.19 512.817 504.325 514.098 502.216C515.369 500.132 517.421 498.638 519.796 498.07C522.171 497.502 524.677 497.908 526.749 499.19C531.041 501.835 532.39 507.445 529.775 511.752C528.494 514.414 501.447 557.409 435.16 557.409Z" fill="#3B8056"/>
<path d="M666.747 662.489C613.94 660.286 575.435 644.15 552.512 613.62C517.121 566.494 532.433 503.598 533.075 501.032C533.679 498.672 535.2 496.651 537.299 495.412C539.398 494.172 541.903 493.823 544.262 494.433C549.132 495.693 552.08 500.646 550.861 505.526C550.861 506.079 537.112 562.646 567.273 602.709C586.617 628.564 620.268 642.501 667.117 644.152C672.18 644.152 676.284 648.256 676.284 653.318C676.284 658.381 672.18 662.49 667.117 662.49L666.747 662.489Z" fill="#3B8056"/>
<path d="M500.253 641.942C498.04 641.963 495.889 641.182 494.201 639.739C483.816 630.921 477.706 618.067 477.425 604.442C475.686 560.249 526.384 507.901 528.586 505.697C532.159 502.144 537.935 502.144 541.513 505.697C543.248 507.421 544.222 509.764 544.222 512.207C544.222 514.65 543.248 516.993 541.513 518.717C541.513 519.176 494.112 567.676 495.669 603.983C495.831 612.545 499.716 620.608 506.305 626.076C510.097 629.42 510.466 635.206 507.128 639.003C505.357 640.915 502.857 641.982 500.253 641.941L500.253 641.942Z" fill="#3B8056"/>
<path d="M828.48 531.929C824.782 531.908 821.454 529.668 820.048 526.241C818.147 521.585 820.355 516.267 824.996 514.325C899.074 483.794 914.662 419.251 914.662 370.471C915.964 326.179 897.605 283.586 864.512 254.122C827.84 222.127 772.829 210.387 708.098 220.201C707.286 220.357 706.442 220.357 705.624 220.201C649.056 212.039 602.39 218.55 566.811 239.727V239.733C562.483 242.326 556.863 240.936 554.248 236.613C552.983 234.514 552.608 231.993 553.212 229.618C553.811 227.238 555.342 225.201 557.462 223.962C596.426 200.764 646.67 193.342 706.902 201.868C776.855 191.598 835.257 204.894 876.702 240.191C913.551 273.352 934.161 320.904 933.175 370.472C933.175 447.3 897.326 504.419 832.326 531.286C831.102 531.77 829.79 531.989 828.472 531.926L828.48 531.929Z" fill="#3B8056"/>
<path d="M791.16 272.462C788.723 272.478 786.379 271.519 784.65 269.801C783.811 268.915 783.134 267.889 782.634 266.775C782.197 265.67 781.978 264.483 781.993 263.295C782.139 259.738 784.327 256.592 787.608 255.217C790.889 253.842 794.665 254.488 797.301 256.874C798.113 257.764 798.764 258.79 799.228 259.9C799.696 261.004 799.946 262.186 799.962 263.384C799.978 265.821 799.019 268.165 797.301 269.894C796.41 270.702 795.389 271.353 794.275 271.821C793.285 272.212 792.228 272.431 791.16 272.462Z" fill="#3B8056"/>
<path d="M854.973 313.169C853.744 313.164 852.526 312.914 851.395 312.434C850.281 311.992 849.276 311.299 848.463 310.419C847.604 309.58 846.921 308.586 846.447 307.481C846.005 306.372 845.791 305.19 845.802 303.997C845.791 302.778 846.01 301.565 846.447 300.424C846.921 299.325 847.604 298.325 848.463 297.492C848.875 297.07 849.338 296.7 849.838 296.388L851.395 295.471L853.135 295.013H853.14C856.13 294.414 859.223 295.341 861.39 297.492C862.276 298.304 862.963 299.304 863.406 300.424C863.869 301.56 864.119 302.773 864.14 303.997C864.124 305.195 863.874 306.383 863.406 307.481C862.963 308.601 862.275 309.601 861.39 310.419C859.697 312.143 857.39 313.132 854.973 313.169Z" fill="#3B8056"/>
<path d="M802.533 321.062C801.304 321.057 800.085 320.807 798.955 320.328C796.752 319.343 794.992 317.578 794.007 315.375C793.153 313.13 793.153 310.651 794.007 308.406C794.471 307.276 795.153 306.244 796.023 305.38C796.414 304.942 796.882 304.567 797.398 304.281C797.887 303.927 798.408 303.619 798.955 303.364H800.7C801.872 303.093 803.096 303.093 804.273 303.364H806.018C806.565 303.619 807.085 303.927 807.575 304.281C808.106 304.541 808.58 304.916 808.95 305.38C809.82 306.245 810.502 307.276 810.966 308.406C811.82 310.651 811.82 313.13 810.966 315.375C809.981 317.578 808.221 319.343 806.018 320.328C804.914 320.797 803.731 321.047 802.533 321.062Z" fill="#3B8056"/>
<path d="M745.88 306.289C743.474 306.278 741.172 305.325 739.463 303.633C738.578 302.784 737.885 301.752 737.443 300.607C736.974 299.502 736.724 298.32 736.713 297.122C736.729 293.419 738.974 290.096 742.396 288.69C744.656 287.747 747.198 287.747 749.458 288.69C750.547 289.133 751.547 289.789 752.39 290.612C753.224 291.502 753.906 292.523 754.406 293.638C754.844 294.747 755.062 295.93 755.047 297.122C755.062 298.315 754.844 299.497 754.406 300.607C753.932 301.732 753.245 302.758 752.39 303.633C750.661 305.346 748.317 306.304 745.88 306.289Z" fill="#3B8056"/>
<path d="M837.56 370.475C832.497 370.475 828.393 366.366 828.393 361.304C828.424 358.887 829.414 356.58 831.143 354.887C831.534 354.423 832.002 354.017 832.518 353.694L834.075 352.871L835.815 352.319H835.82C837.607 351.97 839.456 352.163 841.138 352.871C842.252 353.314 843.258 354.001 844.07 354.887C845.763 356.595 846.716 358.897 846.726 361.303C846.726 363.736 845.763 366.069 844.044 367.788C842.325 369.507 839.992 370.475 837.56 370.475Z" fill="#3B8056"/>
<path d="M731.386 234.969C729.496 234.984 727.662 234.37 726.157 233.229C707.87 221.797 686.553 216.172 665.006 217.093C659.944 217.395 655.59 213.536 655.288 208.473C654.985 203.411 658.845 199.057 663.907 198.755C689.814 197.239 715.527 204.083 737.251 218.281C741.335 221.229 742.277 226.922 739.361 231.026C737.564 233.63 734.548 235.12 731.386 234.969Z" fill="#3B8056"/>
<path d="M717.733 216.902C716.572 216.907 715.421 216.689 714.343 216.262C709.676 214.392 707.39 209.116 709.207 204.433C710.124 202.048 730.478 147.407 670.514 109.084C666.561 106.235 665.524 100.787 668.16 96.6883C670.8 92.5893 676.181 91.2664 680.415 93.6831C753.764 140.256 726.259 210.486 726.259 211.131V211.126C724.868 214.621 721.489 216.907 717.733 216.902Z" fill="#3B8056"/>
<path d="M774.573 176.929C754.266 176.773 734.401 170.997 717.177 160.246C713.276 157.413 712.234 152.043 714.797 147.96C742.755 101.017 775.396 73.5118 811.521 65.9958C836.48 61.1417 862.338 66.4229 883.401 80.6625C886.802 83.3032 887.911 87.9594 886.057 91.85C862.588 137.694 833.062 165.199 798.406 173.631H798.412C790.63 175.715 782.625 176.825 774.573 176.929ZM735.24 149.424C753.464 158.496 774.276 160.929 794.1 156.304C821.605 149.335 845.532 127.606 865.704 91.5745C850.016 83.4808 832.064 80.8974 814.73 84.2412C786.033 89.8297 759.356 111.746 735.241 149.241L735.24 149.424Z" fill="#3B8056"/>
</svg>
