<svg width="722" height="468" viewBox="0 0 722 468" fill="none" xmlns="http://www.w3.org/2000/svg">
<mask id="path-1-outside-1_574_30" maskUnits="userSpaceOnUse" x="0" y="0" width="722" height="468" fill="black">
<rect fill="white" width="722" height="468"/>
<path d="M665.072 465.659H635.635C632.104 465.69 628.89 463.612 627.468 460.378C626.046 457.143 626.687 453.378 629.104 450.795C636.135 444.175 641.583 436.049 645.041 427.029C645.041 426.597 652.218 383.951 648.63 360.545V360.55C648.557 360.144 648.557 359.733 648.63 359.332C648.187 350.936 645.88 342.744 641.88 335.348L634.702 354.16C629.494 372.16 622.088 389.446 612.661 405.638C611.114 407.774 610.062 410.227 609.573 412.815L610.432 415.977H610.437C611.38 419.472 610.739 423.206 608.677 426.18C606.614 429.159 603.343 431.071 599.739 431.409C599.526 434.628 598.349 437.706 596.364 440.242L590.765 447.42C587.734 451.326 583.068 453.607 578.125 453.597H550.703C545.49 453.753 540.766 450.524 539.032 445.607C537.292 440.685 538.933 435.206 543.094 432.055L555.657 422.076C557.756 420.414 559.724 418.586 561.542 416.623L562.047 416.118C564.849 413.133 567.266 409.805 569.224 406.211C576.521 394.071 582.219 381.039 586.167 367.441C586.141 367.18 586.141 366.915 586.167 366.654C587.818 354.998 588.584 343.238 588.464 331.471L575.683 326.086H575.688C564.599 322.008 554.719 315.19 546.969 306.274C546.537 305.769 546.027 305.331 545.459 304.982C544.334 304.253 543.131 303.654 541.87 303.185C534.954 300.17 529.084 295.175 525.001 288.825C519.834 293.06 498.865 306.919 448.324 305.555C436.506 305.154 424.73 303.956 413.073 301.966C386.709 296.852 359.994 293.753 333.161 292.701C331.406 301.914 331.234 311.362 332.661 320.633C332.588 321.133 332.588 321.638 332.661 322.138C335.474 333.159 336.776 344.512 336.536 355.883C336.296 357.737 335.52 359.482 334.312 360.909C334.312 360.909 327.708 369.31 335.817 398.316C337.682 408.149 339.984 419.352 340.697 421.362L340.703 421.357C340.901 421.899 341.067 422.451 341.203 423.008C342.036 427.227 340.218 431.519 336.609 433.852L335.677 434.352L336.536 436.649V436.654C337.244 438.336 337.609 440.139 337.614 441.967V442.899C337.531 447.097 335.552 451.029 332.229 453.597L325.765 458.836H325.77C323.952 460.331 321.77 461.326 319.447 461.706C307.718 463.883 295.698 464.029 283.911 462.139C280.781 461.628 278.099 459.618 276.734 456.753C275.333 453.951 275.333 450.654 276.734 447.852C280.51 441.357 285.37 435.555 291.094 430.691C292.193 429.659 293.073 428.415 293.678 427.029C297.266 417.56 298.428 407.341 297.052 397.311C296.151 388.977 294.641 380.723 292.526 372.613C291.881 370.889 291.235 369.165 290.662 367.447L285.204 350.644C281.589 361.993 279.724 373.832 279.678 385.748L278.886 422.868C278.829 427.321 275.943 431.248 271.709 432.633C271.079 432.842 270.428 432.988 269.771 433.061C270.23 435.118 270.23 437.253 269.771 439.311C269.115 441.524 267.688 443.436 265.751 444.691L258.573 449.212L258.568 449.217C257.126 450.206 255.438 450.779 253.688 450.868L224.969 452.519C221.86 452.696 218.824 451.514 216.652 449.285C214.475 447.055 213.37 443.993 213.626 440.889C213.834 438.451 214.844 436.154 216.495 434.352L229.204 421.144C234.542 415.764 238.49 409.16 240.693 401.904C241.047 400.774 241.334 399.623 241.553 398.456L247.657 377.633V377.639C247.615 373.436 246.448 369.321 244.282 365.717C240.943 358.118 239.584 349.796 240.334 341.523L239.975 317.545V316.467C239.975 315.821 239.042 316.107 237.105 315.894C228.011 314.873 219.506 310.883 212.908 304.55L211.902 303.545C200.996 293.243 192.001 281.091 185.34 267.649C179.991 256.899 175.965 245.545 173.35 233.832C170.767 222.847 160.928 194.701 125.391 169.217C124.459 168.607 123.568 167.936 122.735 167.206H121.298C119.912 167.102 118.522 167.102 117.131 167.206L114.475 167.779C97.4747 171.925 79.9853 173.712 62.496 173.092C61.1105 173.014 59.7304 173.363 58.5481 174.097C57.6523 174.675 56.7929 175.295 55.9648 175.967C52.6107 178.561 48.5638 180.107 44.3346 180.415C40.4543 180.847 36.5376 180.701 32.7043 179.988C28.7876 181.16 24.5584 180.613 21.074 178.477C12.8917 173.451 2.90735 165.269 2.04735 154.784C1.60464 148.482 4.28695 142.362 9.22441 138.415C10.3963 137.435 11.5004 136.383 12.5265 135.258L14.464 133.175C15.714 131.836 16.8443 130.399 17.8389 128.868C23.3441 120.43 29.313 112.305 35.719 104.529L43.5471 91.3207L52.6668 70.5714H52.6616C55.948 59.7016 62.1876 49.962 70.6829 42.426L66.5892 39.3375C66.1725 38.9937 65.7871 38.6083 65.4434 38.1916C45.4847 12.4156 48.5007 8.25431 51.0834 4.95165C52.4688 3.05058 54.6927 1.95165 57.0418 2.00378C58.3334 2.00378 59.9115 2.00377 64.2188 5.3059V5.31111C64.7865 4.45695 65.5209 3.72259 66.3751 3.15485C68.0522 2.06631 70.1095 1.72779 72.047 2.22256C74.5574 2.8684 81.8126 6.09749 95.3803 22.6132C98.8647 25.3424 102.833 27.3892 107.083 28.6444C113.401 19.0975 123.594 7.10842 133.719 9.33242H134.652C135.511 9.33242 154.037 16.5095 151.454 43.8631H151.449C155.861 46.1027 160.449 47.9776 165.162 49.462C166.162 49.7745 167.069 50.3162 167.819 51.0401C167.819 51.0401 192.157 71.3575 272.064 62.9568H273.356C274.934 62.9568 311.334 65.8995 334.668 69.3475C335.673 69.3475 411.058 82.7741 553.281 66.4778C561.896 63.5351 630.677 41.1338 670.521 64.6808H670.526C685.349 73.4256 695.286 88.5355 697.448 105.607C699.864 127.821 700.536 150.196 699.458 172.52C699.458 172.52 698.094 221.555 710.297 251.493C712.021 254.722 723.218 277.41 718.984 297.873H718.989C718.203 302.987 718.422 308.206 719.635 313.237C719.708 313.784 719.708 314.341 719.635 314.888C719.635 317.976 720.927 344.752 702.332 347.123C699.582 347.294 696.838 346.669 694.437 345.331L693.645 363.06L691.202 379.716L689.765 417.123H689.77C689.624 418.222 689.624 419.331 689.77 420.425L691.634 427.602V427.607C692.879 432.55 690.223 437.638 685.457 439.451C684.218 439.904 682.905 440.123 681.582 440.097V447.274V447.279C681.593 449.862 680.76 452.383 679.213 454.456L674.114 461.633V461.638C671.822 464.217 668.525 465.68 665.072 465.659ZM647.552 451.3H663.921L667.796 446.06V446.055C667.682 443.003 667.369 439.956 666.864 436.94C665.911 432.795 666.947 428.435 669.666 425.164C671.203 423.279 673.421 422.065 675.838 421.789C675.661 420.05 675.661 418.289 675.838 416.55L676.843 378.711C676.807 378.451 676.807 378.185 676.843 377.925L679.427 361.482L681.291 328.17H681.296C681.187 327.529 681.187 326.873 681.296 326.233L684.744 316.54C685.926 313.16 689.416 311.17 692.926 311.873C696.322 312.566 698.739 315.587 698.671 319.05C698.098 328.53 700.109 332.045 701.041 332.837C703.984 331.332 705.421 322.931 705.208 316.754H705.202C703.557 309.692 703.286 302.38 704.416 295.218C707.932 278.489 697.239 258.098 697.239 257.885L696.88 257.239C683.38 224.286 684.744 173.813 684.817 171.661H684.812C685.786 150.223 685.161 128.743 682.947 107.401C681.354 94.8693 674.067 83.7698 663.202 77.3218C627.306 56.1445 557.951 80.3375 557.233 80.5511C556.733 80.7698 556.196 80.8948 555.654 80.9104C410.481 97.4211 335.388 84.426 332.228 83.8531C311.337 80.6916 277.878 78.0353 272.853 77.6083C195.676 85.5771 166.02 67.9156 159.416 63.2483H159.421C152.286 61.1702 145.504 58.0243 139.317 53.915C137.098 52.2483 136.036 49.4514 136.588 46.7327C139.244 31.154 133.426 25.1967 130.702 23.7594C125.077 28.223 120.369 33.7334 116.842 39.9887C115.509 42.1814 113.098 43.4991 110.525 43.4314C101.348 42.6137 92.6446 38.9783 85.6126 33.0199L84.7532 32.0876C84.3782 32.5928 83.9459 33.0511 83.4563 33.4521H83.024H83.0292C88.1022 36.2699 90.4303 42.3167 88.5552 47.8121C87.7948 49.7184 86.2531 51.208 84.3208 51.9059C74.8416 55.2808 68.4568 70.2125 66.8048 75.5992H66.7996C66.8309 75.8856 66.8309 76.1721 66.7996 76.4586L57.3934 97.9946L57.3986 97.9998C57.2944 98.281 57.1486 98.5467 56.9663 98.7862L48.6381 113.146C48.3986 113.5 48.1329 113.834 47.8465 114.151C41.6746 121.584 35.9454 129.375 30.6905 137.485C29.2738 139.641 27.6853 141.677 25.9509 143.589L23.9405 145.745V145.74C22.5707 147.219 21.1071 148.61 19.5602 149.907C16.831 152.349 16.9039 153.782 16.9769 154.287C16.9769 157.516 22.1435 162.615 29.2529 166.995C31.5706 166.235 34.0498 166.11 36.4352 166.636C38.8154 166.98 41.2321 166.98 43.6122 166.636C45.0601 166.516 46.4351 165.969 47.5601 165.052C48.7788 164.12 50.0027 163.256 51.1486 162.542C54.8778 160.131 59.2841 158.969 63.7164 159.24C79.7523 159.74 95.7843 158.099 111.388 154.354L115.05 153.563V153.568C120.914 151.938 127.201 152.933 132.279 156.297L134.003 157.662C172.128 184.73 184.258 215.099 187.706 230.464V230.459C190.081 240.865 193.721 250.943 198.544 260.47C204.352 272.407 212.252 283.205 221.878 292.345L223.747 294.214C227.898 298.167 233.206 300.683 238.893 301.391C243.82 301.594 248.434 303.86 251.601 307.641C253.752 310.428 254.851 313.886 254.69 317.402L255.049 341.235V341.24C254.58 347.209 255.408 353.209 257.486 358.828C261.434 365.281 263.2 372.834 262.512 380.364C262.549 380.677 262.549 380.989 262.512 381.302L256.408 402.192H256.413C256.189 403.557 255.851 404.901 255.408 406.213C252.57 415.672 247.471 424.301 240.544 431.339L234.227 437.943L252.393 436.865L256.128 434.422L256.122 434.427C255.914 433.167 255.622 431.922 255.263 430.693C254.695 428.885 254.544 426.969 254.831 425.094C255.185 421.755 257.253 418.849 260.289 417.411C261.945 416.724 263.758 416.5 265.529 416.766L266.175 385.463C268.039 358.182 271.414 347.27 274.289 342.384L274.862 334.775C274.919 333.739 275.211 332.733 275.727 331.832C277.237 328.832 280.044 326.692 283.336 326.015C286.706 325.457 290.159 326.374 292.81 328.53C293.888 329.41 294.685 330.582 295.112 331.905L304.586 363.061L306.091 367.155H306.096C308.701 376.566 310.55 386.171 311.622 395.874C313.227 408.348 311.721 421.024 307.242 432.775C305.883 436.051 303.826 438.994 301.211 441.389C298.659 443.874 296.258 446.509 294.034 449.29C301.862 449.655 309.711 449.176 317.441 447.853L323.685 442.754V442.035C318.373 429.254 323.685 423.582 325.336 422.15C325.654 421.91 325.988 421.692 326.342 421.504C324.904 415.332 322.967 405.28 322.321 401.619C314.066 372.4 318.732 358.54 322.894 352.941C322.534 343.936 321.284 334.988 319.159 326.233C318.925 325.145 318.758 324.041 318.659 322.931C316.217 294.645 319.878 286.677 323.399 282.942C325.206 280.833 327.8 279.562 330.576 279.421H332.227C349.096 278.562 391.675 284.947 415.435 288.9H415.44C426.477 290.781 437.634 291.906 448.82 292.275C496.566 293.64 514.08 280.359 515.951 278.775C517.154 277.77 518.482 276.926 519.899 276.265C523.133 274.551 526.93 274.265 530.383 275.473C533.138 276.541 535.43 278.551 536.842 281.145C539.446 285.244 543.191 288.484 547.612 290.478C549.659 291.286 551.628 292.27 553.498 293.421C555.477 294.614 557.227 296.145 558.67 297.947C564.941 304.937 572.826 310.286 581.643 313.526L598.446 320.703C600.743 321.672 602.373 323.765 602.753 326.234C603.321 340.338 602.623 354.469 600.67 368.447C600.738 369.02 600.738 369.598 600.67 370.171C596.456 385.431 590.227 400.062 582.143 413.677C579.638 418.354 576.523 422.672 572.883 426.531L572.383 427.104C570.174 429.677 567.773 432.073 565.201 434.286L558.023 439.812H578.627C579.117 439.817 579.575 439.578 579.846 439.166L585.518 431.989C585.643 431.687 585.643 431.354 585.518 431.052V426.458C585.591 423.651 586.909 421.02 589.112 419.281C590.966 417.765 593.32 416.994 595.716 417.125V416.479C595.674 415.932 595.674 415.38 595.716 414.828C595.982 408.869 597.945 403.114 601.388 398.244C610.002 383.134 616.8 367.061 621.633 350.353L630.321 327.165C630.456 326.795 630.628 326.431 630.821 326.087C632.826 321.379 637.341 318.228 642.451 317.978C646.576 318.28 650.232 320.733 652.076 324.436C658.883 334.957 662.774 347.097 663.347 359.619C667.222 385.176 659.972 428.327 659.685 430.192C657.237 438.031 653.097 445.239 647.55 451.301L647.552 451.3Z"/>
</mask>
<path d="M665.072 465.659H635.635C632.104 465.69 628.89 463.612 627.468 460.378C626.046 457.143 626.687 453.378 629.104 450.795C636.135 444.175 641.583 436.049 645.041 427.029C645.041 426.597 652.218 383.951 648.63 360.545V360.55C648.557 360.144 648.557 359.733 648.63 359.332C648.187 350.936 645.88 342.744 641.88 335.348L634.702 354.16C629.494 372.16 622.088 389.446 612.661 405.638C611.114 407.774 610.062 410.227 609.573 412.815L610.432 415.977H610.437C611.38 419.472 610.739 423.206 608.677 426.18C606.614 429.159 603.343 431.071 599.739 431.409C599.526 434.628 598.349 437.706 596.364 440.242L590.765 447.42C587.734 451.326 583.068 453.607 578.125 453.597H550.703C545.49 453.753 540.766 450.524 539.032 445.607C537.292 440.685 538.933 435.206 543.094 432.055L555.657 422.076C557.756 420.414 559.724 418.586 561.542 416.623L562.047 416.118C564.849 413.133 567.266 409.805 569.224 406.211C576.521 394.071 582.219 381.039 586.167 367.441C586.141 367.18 586.141 366.915 586.167 366.654C587.818 354.998 588.584 343.238 588.464 331.471L575.683 326.086H575.688C564.599 322.008 554.719 315.19 546.969 306.274C546.537 305.769 546.027 305.331 545.459 304.982C544.334 304.253 543.131 303.654 541.87 303.185C534.954 300.17 529.084 295.175 525.001 288.825C519.834 293.06 498.865 306.919 448.324 305.555C436.506 305.154 424.73 303.956 413.073 301.966C386.709 296.852 359.994 293.753 333.161 292.701C331.406 301.914 331.234 311.362 332.661 320.633C332.588 321.133 332.588 321.638 332.661 322.138C335.474 333.159 336.776 344.512 336.536 355.883C336.296 357.737 335.52 359.482 334.312 360.909C334.312 360.909 327.708 369.31 335.817 398.316C337.682 408.149 339.984 419.352 340.697 421.362L340.703 421.357C340.901 421.899 341.067 422.451 341.203 423.008C342.036 427.227 340.218 431.519 336.609 433.852L335.677 434.352L336.536 436.649V436.654C337.244 438.336 337.609 440.139 337.614 441.967V442.899C337.531 447.097 335.552 451.029 332.229 453.597L325.765 458.836H325.77C323.952 460.331 321.77 461.326 319.447 461.706C307.718 463.883 295.698 464.029 283.911 462.139C280.781 461.628 278.099 459.618 276.734 456.753C275.333 453.951 275.333 450.654 276.734 447.852C280.51 441.357 285.37 435.555 291.094 430.691C292.193 429.659 293.073 428.415 293.678 427.029C297.266 417.56 298.428 407.341 297.052 397.311C296.151 388.977 294.641 380.723 292.526 372.613C291.881 370.889 291.235 369.165 290.662 367.447L285.204 350.644C281.589 361.993 279.724 373.832 279.678 385.748L278.886 422.868C278.829 427.321 275.943 431.248 271.709 432.633C271.079 432.842 270.428 432.988 269.771 433.061C270.23 435.118 270.23 437.253 269.771 439.311C269.115 441.524 267.688 443.436 265.751 444.691L258.573 449.212L258.568 449.217C257.126 450.206 255.438 450.779 253.688 450.868L224.969 452.519C221.86 452.696 218.824 451.514 216.652 449.285C214.475 447.055 213.37 443.993 213.626 440.889C213.834 438.451 214.844 436.154 216.495 434.352L229.204 421.144C234.542 415.764 238.49 409.16 240.693 401.904C241.047 400.774 241.334 399.623 241.553 398.456L247.657 377.633V377.639C247.615 373.436 246.448 369.321 244.282 365.717C240.943 358.118 239.584 349.796 240.334 341.523L239.975 317.545V316.467C239.975 315.821 239.042 316.107 237.105 315.894C228.011 314.873 219.506 310.883 212.908 304.55L211.902 303.545C200.996 293.243 192.001 281.091 185.34 267.649C179.991 256.899 175.965 245.545 173.35 233.832C170.767 222.847 160.928 194.701 125.391 169.217C124.459 168.607 123.568 167.936 122.735 167.206H121.298C119.912 167.102 118.522 167.102 117.131 167.206L114.475 167.779C97.4747 171.925 79.9853 173.712 62.496 173.092C61.1105 173.014 59.7304 173.363 58.5481 174.097C57.6523 174.675 56.7929 175.295 55.9648 175.967C52.6107 178.561 48.5638 180.107 44.3346 180.415C40.4543 180.847 36.5376 180.701 32.7043 179.988C28.7876 181.16 24.5584 180.613 21.074 178.477C12.8917 173.451 2.90735 165.269 2.04735 154.784C1.60464 148.482 4.28695 142.362 9.22441 138.415C10.3963 137.435 11.5004 136.383 12.5265 135.258L14.464 133.175C15.714 131.836 16.8443 130.399 17.8389 128.868C23.3441 120.43 29.313 112.305 35.719 104.529L43.5471 91.3207L52.6668 70.5714H52.6616C55.948 59.7016 62.1876 49.962 70.6829 42.426L66.5892 39.3375C66.1725 38.9937 65.7871 38.6083 65.4434 38.1916C45.4847 12.4156 48.5007 8.25431 51.0834 4.95165C52.4688 3.05058 54.6927 1.95165 57.0418 2.00378C58.3334 2.00378 59.9115 2.00377 64.2188 5.3059V5.31111C64.7865 4.45695 65.5209 3.72259 66.3751 3.15485C68.0522 2.06631 70.1095 1.72779 72.047 2.22256C74.5574 2.8684 81.8126 6.09749 95.3803 22.6132C98.8647 25.3424 102.833 27.3892 107.083 28.6444C113.401 19.0975 123.594 7.10842 133.719 9.33242H134.652C135.511 9.33242 154.037 16.5095 151.454 43.8631H151.449C155.861 46.1027 160.449 47.9776 165.162 49.462C166.162 49.7745 167.069 50.3162 167.819 51.0401C167.819 51.0401 192.157 71.3575 272.064 62.9568H273.356C274.934 62.9568 311.334 65.8995 334.668 69.3475C335.673 69.3475 411.058 82.7741 553.281 66.4778C561.896 63.5351 630.677 41.1338 670.521 64.6808H670.526C685.349 73.4256 695.286 88.5355 697.448 105.607C699.864 127.821 700.536 150.196 699.458 172.52C699.458 172.52 698.094 221.555 710.297 251.493C712.021 254.722 723.218 277.41 718.984 297.873H718.989C718.203 302.987 718.422 308.206 719.635 313.237C719.708 313.784 719.708 314.341 719.635 314.888C719.635 317.976 720.927 344.752 702.332 347.123C699.582 347.294 696.838 346.669 694.437 345.331L693.645 363.06L691.202 379.716L689.765 417.123H689.77C689.624 418.222 689.624 419.331 689.77 420.425L691.634 427.602V427.607C692.879 432.55 690.223 437.638 685.457 439.451C684.218 439.904 682.905 440.123 681.582 440.097V447.274V447.279C681.593 449.862 680.76 452.383 679.213 454.456L674.114 461.633V461.638C671.822 464.217 668.525 465.68 665.072 465.659ZM647.552 451.3H663.921L667.796 446.06V446.055C667.682 443.003 667.369 439.956 666.864 436.94C665.911 432.795 666.947 428.435 669.666 425.164C671.203 423.279 673.421 422.065 675.838 421.789C675.661 420.05 675.661 418.289 675.838 416.55L676.843 378.711C676.807 378.451 676.807 378.185 676.843 377.925L679.427 361.482L681.291 328.17H681.296C681.187 327.529 681.187 326.873 681.296 326.233L684.744 316.54C685.926 313.16 689.416 311.17 692.926 311.873C696.322 312.566 698.739 315.587 698.671 319.05C698.098 328.53 700.109 332.045 701.041 332.837C703.984 331.332 705.421 322.931 705.208 316.754H705.202C703.557 309.692 703.286 302.38 704.416 295.218C707.932 278.489 697.239 258.098 697.239 257.885L696.88 257.239C683.38 224.286 684.744 173.813 684.817 171.661H684.812C685.786 150.223 685.161 128.743 682.947 107.401C681.354 94.8693 674.067 83.7698 663.202 77.3218C627.306 56.1445 557.951 80.3375 557.233 80.5511C556.733 80.7698 556.196 80.8948 555.654 80.9104C410.481 97.4211 335.388 84.426 332.228 83.8531C311.337 80.6916 277.878 78.0353 272.853 77.6083C195.676 85.5771 166.02 67.9156 159.416 63.2483H159.421C152.286 61.1702 145.504 58.0243 139.317 53.915C137.098 52.2483 136.036 49.4514 136.588 46.7327C139.244 31.154 133.426 25.1967 130.702 23.7594C125.077 28.223 120.369 33.7334 116.842 39.9887C115.509 42.1814 113.098 43.4991 110.525 43.4314C101.348 42.6137 92.6446 38.9783 85.6126 33.0199L84.7532 32.0876C84.3782 32.5928 83.9459 33.0511 83.4563 33.4521H83.024H83.0292C88.1022 36.2699 90.4303 42.3167 88.5552 47.8121C87.7948 49.7184 86.2531 51.208 84.3208 51.9059C74.8416 55.2808 68.4568 70.2125 66.8048 75.5992H66.7996C66.8309 75.8856 66.8309 76.1721 66.7996 76.4586L57.3934 97.9946L57.3986 97.9998C57.2944 98.281 57.1486 98.5467 56.9663 98.7862L48.6381 113.146C48.3986 113.5 48.1329 113.834 47.8465 114.151C41.6746 121.584 35.9454 129.375 30.6905 137.485C29.2738 139.641 27.6853 141.677 25.9509 143.589L23.9405 145.745V145.74C22.5707 147.219 21.1071 148.61 19.5602 149.907C16.831 152.349 16.9039 153.782 16.9769 154.287C16.9769 157.516 22.1435 162.615 29.2529 166.995C31.5706 166.235 34.0498 166.11 36.4352 166.636C38.8154 166.98 41.2321 166.98 43.6122 166.636C45.0601 166.516 46.4351 165.969 47.5601 165.052C48.7788 164.12 50.0027 163.256 51.1486 162.542C54.8778 160.131 59.2841 158.969 63.7164 159.24C79.7523 159.74 95.7843 158.099 111.388 154.354L115.05 153.563V153.568C120.914 151.938 127.201 152.933 132.279 156.297L134.003 157.662C172.128 184.73 184.258 215.099 187.706 230.464V230.459C190.081 240.865 193.721 250.943 198.544 260.47C204.352 272.407 212.252 283.205 221.878 292.345L223.747 294.214C227.898 298.167 233.206 300.683 238.893 301.391C243.82 301.594 248.434 303.86 251.601 307.641C253.752 310.428 254.851 313.886 254.69 317.402L255.049 341.235V341.24C254.58 347.209 255.408 353.209 257.486 358.828C261.434 365.281 263.2 372.834 262.512 380.364C262.549 380.677 262.549 380.989 262.512 381.302L256.408 402.192H256.413C256.189 403.557 255.851 404.901 255.408 406.213C252.57 415.672 247.471 424.301 240.544 431.339L234.227 437.943L252.393 436.865L256.128 434.422L256.122 434.427C255.914 433.167 255.622 431.922 255.263 430.693C254.695 428.885 254.544 426.969 254.831 425.094C255.185 421.755 257.253 418.849 260.289 417.411C261.945 416.724 263.758 416.5 265.529 416.766L266.175 385.463C268.039 358.182 271.414 347.27 274.289 342.384L274.862 334.775C274.919 333.739 275.211 332.733 275.727 331.832C277.237 328.832 280.044 326.692 283.336 326.015C286.706 325.457 290.159 326.374 292.81 328.53C293.888 329.41 294.685 330.582 295.112 331.905L304.586 363.061L306.091 367.155H306.096C308.701 376.566 310.55 386.171 311.622 395.874C313.227 408.348 311.721 421.024 307.242 432.775C305.883 436.051 303.826 438.994 301.211 441.389C298.659 443.874 296.258 446.509 294.034 449.29C301.862 449.655 309.711 449.176 317.441 447.853L323.685 442.754V442.035C318.373 429.254 323.685 423.582 325.336 422.15C325.654 421.91 325.988 421.692 326.342 421.504C324.904 415.332 322.967 405.28 322.321 401.619C314.066 372.4 318.732 358.54 322.894 352.941C322.534 343.936 321.284 334.988 319.159 326.233C318.925 325.145 318.758 324.041 318.659 322.931C316.217 294.645 319.878 286.677 323.399 282.942C325.206 280.833 327.8 279.562 330.576 279.421H332.227C349.096 278.562 391.675 284.947 415.435 288.9H415.44C426.477 290.781 437.634 291.906 448.82 292.275C496.566 293.64 514.08 280.359 515.951 278.775C517.154 277.77 518.482 276.926 519.899 276.265C523.133 274.551 526.93 274.265 530.383 275.473C533.138 276.541 535.43 278.551 536.842 281.145C539.446 285.244 543.191 288.484 547.612 290.478C549.659 291.286 551.628 292.27 553.498 293.421C555.477 294.614 557.227 296.145 558.67 297.947C564.941 304.937 572.826 310.286 581.643 313.526L598.446 320.703C600.743 321.672 602.373 323.765 602.753 326.234C603.321 340.338 602.623 354.469 600.67 368.447C600.738 369.02 600.738 369.598 600.67 370.171C596.456 385.431 590.227 400.062 582.143 413.677C579.638 418.354 576.523 422.672 572.883 426.531L572.383 427.104C570.174 429.677 567.773 432.073 565.201 434.286L558.023 439.812H578.627C579.117 439.817 579.575 439.578 579.846 439.166L585.518 431.989C585.643 431.687 585.643 431.354 585.518 431.052V426.458C585.591 423.651 586.909 421.02 589.112 419.281C590.966 417.765 593.32 416.994 595.716 417.125V416.479C595.674 415.932 595.674 415.38 595.716 414.828C595.982 408.869 597.945 403.114 601.388 398.244C610.002 383.134 616.8 367.061 621.633 350.353L630.321 327.165C630.456 326.795 630.628 326.431 630.821 326.087C632.826 321.379 637.341 318.228 642.451 317.978C646.576 318.28 650.232 320.733 652.076 324.436C658.883 334.957 662.774 347.097 663.347 359.619C667.222 385.176 659.972 428.327 659.685 430.192C657.237 438.031 653.097 445.239 647.55 451.301L647.552 451.3Z" fill="#3B8056"/>
<path d="M665.072 465.659H635.635C632.104 465.69 628.89 463.612 627.468 460.378C626.046 457.143 626.687 453.378 629.104 450.795C636.135 444.175 641.583 436.049 645.041 427.029C645.041 426.597 652.218 383.951 648.63 360.545V360.55C648.557 360.144 648.557 359.733 648.63 359.332C648.187 350.936 645.88 342.744 641.88 335.348L634.702 354.16C629.494 372.16 622.088 389.446 612.661 405.638C611.114 407.774 610.062 410.227 609.573 412.815L610.432 415.977H610.437C611.38 419.472 610.739 423.206 608.677 426.18C606.614 429.159 603.343 431.071 599.739 431.409C599.526 434.628 598.349 437.706 596.364 440.242L590.765 447.42C587.734 451.326 583.068 453.607 578.125 453.597H550.703C545.49 453.753 540.766 450.524 539.032 445.607C537.292 440.685 538.933 435.206 543.094 432.055L555.657 422.076C557.756 420.414 559.724 418.586 561.542 416.623L562.047 416.118C564.849 413.133 567.266 409.805 569.224 406.211C576.521 394.071 582.219 381.039 586.167 367.441C586.141 367.18 586.141 366.915 586.167 366.654C587.818 354.998 588.584 343.238 588.464 331.471L575.683 326.086H575.688C564.599 322.008 554.719 315.19 546.969 306.274C546.537 305.769 546.027 305.331 545.459 304.982C544.334 304.253 543.131 303.654 541.87 303.185C534.954 300.17 529.084 295.175 525.001 288.825C519.834 293.06 498.865 306.919 448.324 305.555C436.506 305.154 424.73 303.956 413.073 301.966C386.709 296.852 359.994 293.753 333.161 292.701C331.406 301.914 331.234 311.362 332.661 320.633C332.588 321.133 332.588 321.638 332.661 322.138C335.474 333.159 336.776 344.512 336.536 355.883C336.296 357.737 335.52 359.482 334.312 360.909C334.312 360.909 327.708 369.31 335.817 398.316C337.682 408.149 339.984 419.352 340.697 421.362L340.703 421.357C340.901 421.899 341.067 422.451 341.203 423.008C342.036 427.227 340.218 431.519 336.609 433.852L335.677 434.352L336.536 436.649V436.654C337.244 438.336 337.609 440.139 337.614 441.967V442.899C337.531 447.097 335.552 451.029 332.229 453.597L325.765 458.836H325.77C323.952 460.331 321.77 461.326 319.447 461.706C307.718 463.883 295.698 464.029 283.911 462.139C280.781 461.628 278.099 459.618 276.734 456.753C275.333 453.951 275.333 450.654 276.734 447.852C280.51 441.357 285.37 435.555 291.094 430.691C292.193 429.659 293.073 428.415 293.678 427.029C297.266 417.56 298.428 407.341 297.052 397.311C296.151 388.977 294.641 380.723 292.526 372.613C291.881 370.889 291.235 369.165 290.662 367.447L285.204 350.644C281.589 361.993 279.724 373.832 279.678 385.748L278.886 422.868C278.829 427.321 275.943 431.248 271.709 432.633C271.079 432.842 270.428 432.988 269.771 433.061C270.23 435.118 270.23 437.253 269.771 439.311C269.115 441.524 267.688 443.436 265.751 444.691L258.573 449.212L258.568 449.217C257.126 450.206 255.438 450.779 253.688 450.868L224.969 452.519C221.86 452.696 218.824 451.514 216.652 449.285C214.475 447.055 213.37 443.993 213.626 440.889C213.834 438.451 214.844 436.154 216.495 434.352L229.204 421.144C234.542 415.764 238.49 409.16 240.693 401.904C241.047 400.774 241.334 399.623 241.553 398.456L247.657 377.633V377.639C247.615 373.436 246.448 369.321 244.282 365.717C240.943 358.118 239.584 349.796 240.334 341.523L239.975 317.545V316.467C239.975 315.821 239.042 316.107 237.105 315.894C228.011 314.873 219.506 310.883 212.908 304.55L211.902 303.545C200.996 293.243 192.001 281.091 185.34 267.649C179.991 256.899 175.965 245.545 173.35 233.832C170.767 222.847 160.928 194.701 125.391 169.217C124.459 168.607 123.568 167.936 122.735 167.206H121.298C119.912 167.102 118.522 167.102 117.131 167.206L114.475 167.779C97.4747 171.925 79.9853 173.712 62.496 173.092C61.1105 173.014 59.7304 173.363 58.5481 174.097C57.6523 174.675 56.7929 175.295 55.9648 175.967C52.6107 178.561 48.5638 180.107 44.3346 180.415C40.4543 180.847 36.5376 180.701 32.7043 179.988C28.7876 181.16 24.5584 180.613 21.074 178.477C12.8917 173.451 2.90735 165.269 2.04735 154.784C1.60464 148.482 4.28695 142.362 9.22441 138.415C10.3963 137.435 11.5004 136.383 12.5265 135.258L14.464 133.175C15.714 131.836 16.8443 130.399 17.8389 128.868C23.3441 120.43 29.313 112.305 35.719 104.529L43.5471 91.3207L52.6668 70.5714H52.6616C55.948 59.7016 62.1876 49.962 70.6829 42.426L66.5892 39.3375C66.1725 38.9937 65.7871 38.6083 65.4434 38.1916C45.4847 12.4156 48.5007 8.25431 51.0834 4.95165C52.4688 3.05058 54.6927 1.95165 57.0418 2.00378C58.3334 2.00378 59.9115 2.00377 64.2188 5.3059V5.31111C64.7865 4.45695 65.5209 3.72259 66.3751 3.15485C68.0522 2.06631 70.1095 1.72779 72.047 2.22256C74.5574 2.8684 81.8126 6.09749 95.3803 22.6132C98.8647 25.3424 102.833 27.3892 107.083 28.6444C113.401 19.0975 123.594 7.10842 133.719 9.33242H134.652C135.511 9.33242 154.037 16.5095 151.454 43.8631H151.449C155.861 46.1027 160.449 47.9776 165.162 49.462C166.162 49.7745 167.069 50.3162 167.819 51.0401C167.819 51.0401 192.157 71.3575 272.064 62.9568H273.356C274.934 62.9568 311.334 65.8995 334.668 69.3475C335.673 69.3475 411.058 82.7741 553.281 66.4778C561.896 63.5351 630.677 41.1338 670.521 64.6808H670.526C685.349 73.4256 695.286 88.5355 697.448 105.607C699.864 127.821 700.536 150.196 699.458 172.52C699.458 172.52 698.094 221.555 710.297 251.493C712.021 254.722 723.218 277.41 718.984 297.873H718.989C718.203 302.987 718.422 308.206 719.635 313.237C719.708 313.784 719.708 314.341 719.635 314.888C719.635 317.976 720.927 344.752 702.332 347.123C699.582 347.294 696.838 346.669 694.437 345.331L693.645 363.06L691.202 379.716L689.765 417.123H689.77C689.624 418.222 689.624 419.331 689.77 420.425L691.634 427.602V427.607C692.879 432.55 690.223 437.638 685.457 439.451C684.218 439.904 682.905 440.123 681.582 440.097V447.274V447.279C681.593 449.862 680.76 452.383 679.213 454.456L674.114 461.633V461.638C671.822 464.217 668.525 465.68 665.072 465.659ZM647.552 451.3H663.921L667.796 446.06V446.055C667.682 443.003 667.369 439.956 666.864 436.94C665.911 432.795 666.947 428.435 669.666 425.164C671.203 423.279 673.421 422.065 675.838 421.789C675.661 420.05 675.661 418.289 675.838 416.55L676.843 378.711C676.807 378.451 676.807 378.185 676.843 377.925L679.427 361.482L681.291 328.17H681.296C681.187 327.529 681.187 326.873 681.296 326.233L684.744 316.54C685.926 313.16 689.416 311.17 692.926 311.873C696.322 312.566 698.739 315.587 698.671 319.05C698.098 328.53 700.109 332.045 701.041 332.837C703.984 331.332 705.421 322.931 705.208 316.754H705.202C703.557 309.692 703.286 302.38 704.416 295.218C707.932 278.489 697.239 258.098 697.239 257.885L696.88 257.239C683.38 224.286 684.744 173.813 684.817 171.661H684.812C685.786 150.223 685.161 128.743 682.947 107.401C681.354 94.8693 674.067 83.7698 663.202 77.3218C627.306 56.1445 557.951 80.3375 557.233 80.5511C556.733 80.7698 556.196 80.8948 555.654 80.9104C410.481 97.4211 335.388 84.426 332.228 83.8531C311.337 80.6916 277.878 78.0353 272.853 77.6083C195.676 85.5771 166.02 67.9156 159.416 63.2483H159.421C152.286 61.1702 145.504 58.0243 139.317 53.915C137.098 52.2483 136.036 49.4514 136.588 46.7327C139.244 31.154 133.426 25.1967 130.702 23.7594C125.077 28.223 120.369 33.7334 116.842 39.9887C115.509 42.1814 113.098 43.4991 110.525 43.4314C101.348 42.6137 92.6446 38.9783 85.6126 33.0199L84.7532 32.0876C84.3782 32.5928 83.9459 33.0511 83.4563 33.4521H83.024H83.0292C88.1022 36.2699 90.4303 42.3167 88.5552 47.8121C87.7948 49.7184 86.2531 51.208 84.3208 51.9059C74.8416 55.2808 68.4568 70.2125 66.8048 75.5992H66.7996C66.8309 75.8856 66.8309 76.1721 66.7996 76.4586L57.3934 97.9946L57.3986 97.9998C57.2944 98.281 57.1486 98.5467 56.9663 98.7862L48.6381 113.146C48.3986 113.5 48.1329 113.834 47.8465 114.151C41.6746 121.584 35.9454 129.375 30.6905 137.485C29.2738 139.641 27.6853 141.677 25.9509 143.589L23.9405 145.745V145.74C22.5707 147.219 21.1071 148.61 19.5602 149.907C16.831 152.349 16.9039 153.782 16.9769 154.287C16.9769 157.516 22.1435 162.615 29.2529 166.995C31.5706 166.235 34.0498 166.11 36.4352 166.636C38.8154 166.98 41.2321 166.98 43.6122 166.636C45.0601 166.516 46.4351 165.969 47.5601 165.052C48.7788 164.12 50.0027 163.256 51.1486 162.542C54.8778 160.131 59.2841 158.969 63.7164 159.24C79.7523 159.74 95.7843 158.099 111.388 154.354L115.05 153.563V153.568C120.914 151.938 127.201 152.933 132.279 156.297L134.003 157.662C172.128 184.73 184.258 215.099 187.706 230.464V230.459C190.081 240.865 193.721 250.943 198.544 260.47C204.352 272.407 212.252 283.205 221.878 292.345L223.747 294.214C227.898 298.167 233.206 300.683 238.893 301.391C243.82 301.594 248.434 303.86 251.601 307.641C253.752 310.428 254.851 313.886 254.69 317.402L255.049 341.235V341.24C254.58 347.209 255.408 353.209 257.486 358.828C261.434 365.281 263.2 372.834 262.512 380.364C262.549 380.677 262.549 380.989 262.512 381.302L256.408 402.192H256.413C256.189 403.557 255.851 404.901 255.408 406.213C252.57 415.672 247.471 424.301 240.544 431.339L234.227 437.943L252.393 436.865L256.128 434.422L256.122 434.427C255.914 433.167 255.622 431.922 255.263 430.693C254.695 428.885 254.544 426.969 254.831 425.094C255.185 421.755 257.253 418.849 260.289 417.411C261.945 416.724 263.758 416.5 265.529 416.766L266.175 385.463C268.039 358.182 271.414 347.27 274.289 342.384L274.862 334.775C274.919 333.739 275.211 332.733 275.727 331.832C277.237 328.832 280.044 326.692 283.336 326.015C286.706 325.457 290.159 326.374 292.81 328.53C293.888 329.41 294.685 330.582 295.112 331.905L304.586 363.061L306.091 367.155H306.096C308.701 376.566 310.55 386.171 311.622 395.874C313.227 408.348 311.721 421.024 307.242 432.775C305.883 436.051 303.826 438.994 301.211 441.389C298.659 443.874 296.258 446.509 294.034 449.29C301.862 449.655 309.711 449.176 317.441 447.853L323.685 442.754V442.035C318.373 429.254 323.685 423.582 325.336 422.15C325.654 421.91 325.988 421.692 326.342 421.504C324.904 415.332 322.967 405.28 322.321 401.619C314.066 372.4 318.732 358.54 322.894 352.941C322.534 343.936 321.284 334.988 319.159 326.233C318.925 325.145 318.758 324.041 318.659 322.931C316.217 294.645 319.878 286.677 323.399 282.942C325.206 280.833 327.8 279.562 330.576 279.421H332.227C349.096 278.562 391.675 284.947 415.435 288.9H415.44C426.477 290.781 437.634 291.906 448.82 292.275C496.566 293.64 514.08 280.359 515.951 278.775C517.154 277.77 518.482 276.926 519.899 276.265C523.133 274.551 526.93 274.265 530.383 275.473C533.138 276.541 535.43 278.551 536.842 281.145C539.446 285.244 543.191 288.484 547.612 290.478C549.659 291.286 551.628 292.27 553.498 293.421C555.477 294.614 557.227 296.145 558.67 297.947C564.941 304.937 572.826 310.286 581.643 313.526L598.446 320.703C600.743 321.672 602.373 323.765 602.753 326.234C603.321 340.338 602.623 354.469 600.67 368.447C600.738 369.02 600.738 369.598 600.67 370.171C596.456 385.431 590.227 400.062 582.143 413.677C579.638 418.354 576.523 422.672 572.883 426.531L572.383 427.104C570.174 429.677 567.773 432.073 565.201 434.286L558.023 439.812H578.627C579.117 439.817 579.575 439.578 579.846 439.166L585.518 431.989C585.643 431.687 585.643 431.354 585.518 431.052V426.458C585.591 423.651 586.909 421.02 589.112 419.281C590.966 417.765 593.32 416.994 595.716 417.125V416.479C595.674 415.932 595.674 415.38 595.716 414.828C595.982 408.869 597.945 403.114 601.388 398.244C610.002 383.134 616.8 367.061 621.633 350.353L630.321 327.165C630.456 326.795 630.628 326.431 630.821 326.087C632.826 321.379 637.341 318.228 642.451 317.978C646.576 318.28 650.232 320.733 652.076 324.436C658.883 334.957 662.774 347.097 663.347 359.619C667.222 385.176 659.972 428.327 659.685 430.192C657.237 438.031 653.097 445.239 647.55 451.301L647.552 451.3Z" stroke="#3B8056" stroke-width="4" mask="url(#path-1-outside-1_574_30)"/>
</svg>
