<svg width="483" height="557" viewBox="0 0 483 557" fill="none" xmlns="http://www.w3.org/2000/svg">
<path d="M474.724 234.934L470.619 218.507L455.313 230.528C451.953 220.585 447.308 211.121 441.501 202.382L438.589 198.2L433.511 197.825C426.329 197.408 419.126 197.711 412.006 198.721L418.725 178.262L399.907 182.893C394.605 184.163 388.855 185.804 382.657 187.898C385.047 63.8045 332.782 8.69779 326.807 2.80445H326.432V2.42945H326.438C325.698 1.90341 324.896 1.47634 324.047 1.15863C324.047 1.15863 323.375 0.710713 322.927 0.559673V0.564881C321.484 0.0909212 319.964 -0.0861605 318.448 0.0388395C310.083 0.93468 234.823 11.2367 158.595 110.32C154.266 116.966 150.23 123.908 146.35 130.93C126.011 115.247 102.532 104.143 77.5058 98.3775C74.3235 97.841 71.0683 98.7473 68.6203 100.841C64.6619 104.2 41.443 125.409 23.0003 171.101H22.9951C22.7243 171.591 22.5211 172.122 22.4013 172.669C8.91735 207.768 1.34933 244.857 0 282.429C2.04693 337.793 16.9733 391.913 43.604 440.496C74.74 487.313 103.339 498.96 126.188 498.96C138.277 498.501 150.193 495.975 161.428 491.496C166.433 489.704 188.157 484.027 191.668 482.834C202.418 504.709 221.012 513.746 234.528 520.168C239.309 522.48 262.304 535.626 266.783 538.537L266.788 538.532C280.705 549.35 297.637 555.584 315.247 556.381C335.632 556.381 361.392 547.121 394.168 517.48C412.892 497.376 429.157 475.12 442.627 451.173C456.376 427.08 467.157 401.408 474.731 374.715C485.111 328.699 485.111 280.955 474.731 234.941L474.724 234.934ZM404.385 222.09H404.39C411.755 220.501 419.254 219.652 426.792 219.553C431.297 227.757 434.854 236.45 437.39 245.465L382.213 290.268L404.385 222.09ZM159.478 151.606H159.484C164.437 141.663 169.916 131.991 175.91 122.637C221.155 63.6472 264.983 38.9339 292.389 28.9285C282.837 43.4019 274.039 58.3552 266.029 73.7312C264.565 76.2886 264.216 79.3354 265.065 82.1583C265.909 84.9812 267.878 87.3354 270.508 88.6635C272.055 89.4656 273.768 89.9031 275.513 89.9343C279.539 89.9343 283.227 87.6843 285.07 84.1114C295.107 64.538 306.664 45.7887 319.638 28.0327C334.57 47.3714 362.794 96.798 361.076 187.073C361.076 190.432 360.331 193.87 359.805 197.229L358.982 197.604C356.143 198.875 353.159 200.219 350.17 201.708L344.347 204.62L340.914 206.411H340.92C329.654 212.302 318.737 218.833 308.217 225.974L306.05 227.469L298.581 232.844L295.519 235.156C293.206 236.948 290.889 238.667 288.649 240.531L284.17 244.115L278.42 248.896C274.988 251.807 271.477 254.797 267.967 258.005C263.415 262.859 258.93 267.937 254.603 272.937H254.608C245.561 283.828 237.207 295.276 229.592 307.208C226.082 312.661 222.722 318.26 219.514 323.858C219.066 324.603 218.691 325.426 218.243 326.249C214.561 332.822 211.123 339.463 207.941 346.186V347.233C207.91 347.478 207.91 347.728 207.941 347.978L206.894 350.369C214.623 284.035 230.243 218.863 253.41 156.235C255.316 150.715 252.457 144.683 246.978 142.651C241.504 140.62 235.405 143.339 233.254 148.766C208.645 215.073 192.322 284.166 184.645 354.473L178.743 352.681C154.998 346.108 125.431 337.749 126.478 265.769C129.145 240.149 134.832 214.936 143.426 190.654C147.983 177.321 153.343 164.285 159.483 151.602L159.478 151.606ZM192.484 383.073C190.468 388.823 188.749 394.198 187.254 399.427L187.26 399.422C187.223 399.724 187.223 400.021 187.26 400.318C186.067 406.068 185.171 411.594 184.499 416.818C184.499 418.61 184.499 420.25 183.978 421.969C183.978 425.401 183.307 428.839 183.155 431.974V436.979V446.464V449.974C183.155 453.933 183.978 457.443 184.65 461.25H184.645C180.463 462.297 160.973 467.745 153.957 470.136C130.588 478.276 101.692 488.354 61.7437 428.324V428.318C37.1757 383.188 23.3064 333.016 21.197 281.678C22.5043 248.938 28.7752 216.585 39.7904 185.73C56.0304 185.012 72.1597 182.715 87.9517 178.861C90.9048 178.34 93.509 176.621 95.1444 174.111C96.785 171.6 97.3111 168.527 96.5922 165.616C95.8787 162.704 93.9881 160.22 91.3735 158.751C88.7589 157.288 85.6547 156.97 82.8005 157.876C71.7589 160.6 60.5245 162.475 49.1965 163.48C56.6444 147.611 66.5458 133.022 78.5405 120.246C99.4938 126.475 119.077 136.61 136.259 150.115C136.259 150.787 135.66 151.459 135.29 152.204C133.124 156.907 130.962 161.61 129.02 166.464C127.077 171.318 124.389 178.11 122.301 183.86H122.296C113.051 210.048 106.962 237.245 104.156 264.876C102.437 354.474 145.968 366.646 171.953 373.892C177.031 375.308 192.26 381.808 192.636 381.808H193.084V381.803C192.912 382.334 192.709 382.86 192.485 383.371L192.484 383.073ZM453.817 369.333C439.432 418.587 413.885 463.869 379.15 501.639C324.572 550.847 298.957 533.899 278.353 520.306C272.155 516.202 250.28 503.806 243.634 500.519C230.421 494.17 215.41 486.779 208.317 467.145V466.546C203.088 451.614 203.088 430.852 208.317 405.395C209.661 400.765 211.155 396.213 212.723 391.583C214.291 386.953 215.786 383.145 217.65 378.442C220.562 370.973 223.624 363.51 226.911 356.937L227.51 355.744C230.942 348.275 234.53 341.63 238.338 334.99C241.4 329.615 244.536 324.385 247.822 319.307C251.109 314.228 254.692 308.927 258.275 304H258.265C265.911 293.386 274.218 283.26 283.129 273.688C287.608 269.657 292.014 266.219 296.421 262.266L300.228 259.204C303.436 256.589 306.65 254.126 309.785 251.735L313.744 248.824C317.129 246.386 320.415 244.068 323.598 241.881L326.509 239.865C335.171 234.188 343.457 229.339 351.373 224.933L356.227 222.47C358.467 221.35 360.779 220.157 362.946 219.183C365.113 218.215 368.399 216.72 371.087 215.527C376.238 213.36 381.243 211.345 386.019 209.777L338.977 352.83L457.551 257.106C463.108 294.533 461.816 332.664 453.743 369.628L453.817 369.333Z" fill="#3B8056"/>
<path d="M314.711 276.6C311.351 278.616 232.575 327.002 227.727 424.814C227.43 430.767 232.003 435.84 237.956 436.163H238.555C244.279 436.131 248.987 431.647 249.305 425.933C253.633 339.845 325.165 295.491 325.835 295.116C330.502 291.856 331.851 285.543 328.919 280.663C325.986 275.783 319.778 274.007 314.711 276.6Z" fill="#3B8056"/>
</svg>
