<?xml version="1.0" encoding="utf-8"?>
<!-- Generator: Adobe Illustrator 27.5.0, SVG Export Plug-In . SVG Version: 6.00 Build 0)  -->
<svg version="1.1" xmlns="http://www.w3.org/2000/svg" xmlns:xlink="http://www.w3.org/1999/xlink" x="0px" y="0px"
	 viewBox="0 0 500 500" style="enable-background:new 0 0 500 500;" xml:space="preserve">
<g id="Background_Simple">
	<g>
		<path style="fill:#92E3A9;" d="M475.79,277.045c-13.494,40.9-42.565,85.725-85.346,100.317
			c-64.641,22.054-70.416,75.069-187.736,74.707c-18.292-0.055-35.271-1.97-50.936-5.47c-8.421-1.88-16.465-4.23-24.12-7.001
			c-69.499-25.07-107.551-84.691-112.981-148.401C7.516,207.403,64.54,165.128,101.7,140.229
			c37.16-24.899,79.531-117.452,194.867-118.002c17.585-0.076,35.199,1.647,52.355,5.593c39.163,8.991,79.458,30.67,103.664,63.702
			c1.817,2.482,3.557,5.026,5.23,7.622C490.464,149.943,494.191,221.286,475.79,277.045z"/>
		<path style="opacity:0.7;fill:#FFFFFF;" d="M475.79,277.045c-13.494,40.9-42.565,85.725-85.346,100.317
			c-64.641,22.054-70.416,75.069-187.736,74.707c-18.292-0.055-35.271-1.97-50.936-5.47c-8.421-1.88-16.465-4.23-24.12-7.001
			c-69.499-25.07-107.551-84.691-112.981-148.401C7.516,207.403,64.54,165.128,101.7,140.229
			c37.16-24.899,79.531-117.452,194.867-118.002c17.585-0.076,35.199,1.647,52.355,5.593c39.163,8.991,79.458,30.67,103.664,63.702
			c1.817,2.482,3.557,5.026,5.23,7.622C490.464,149.943,494.191,221.286,475.79,277.045z"/>
	</g>
</g>
<g id="Graphics">
	<g>
		<g>
			
				<rect x="41.596" y="65.842" style="fill:none;stroke:#263238;stroke-linecap:round;stroke-linejoin:round;stroke-miterlimit:10;" width="13.694" height="13.694"/>
			
				<line style="fill:none;stroke:#263238;stroke-linecap:round;stroke-linejoin:round;stroke-miterlimit:10;" x1="60.767" y1="72.689" x2="121.019" y2="72.689"/>
		</g>
		<g>
			
				<rect x="41.596" y="85.013" style="fill:none;stroke:#263238;stroke-linecap:round;stroke-linejoin:round;stroke-miterlimit:10;" width="13.694" height="13.694"/>
			
				<line style="fill:none;stroke:#263238;stroke-linecap:round;stroke-linejoin:round;stroke-miterlimit:10;" x1="60.767" y1="91.86" x2="121.019" y2="91.86"/>
		</g>
		<g>
			
				<rect x="41.596" y="104.184" style="fill:none;stroke:#263238;stroke-linecap:round;stroke-linejoin:round;stroke-miterlimit:10;" width="13.694" height="13.694"/>
			
				<line style="fill:none;stroke:#263238;stroke-linecap:round;stroke-linejoin:round;stroke-miterlimit:10;" x1="60.767" y1="111.031" x2="121.019" y2="111.031"/>
		</g>
		<g>
			
				<rect x="41.596" y="123.355" style="fill:none;stroke:#263238;stroke-linecap:round;stroke-linejoin:round;stroke-miterlimit:10;" width="13.694" height="13.694"/>
			
				<line style="fill:none;stroke:#263238;stroke-linecap:round;stroke-linejoin:round;stroke-miterlimit:10;" x1="60.767" y1="130.202" x2="121.019" y2="130.202"/>
		</g>
		<g>
			
				<rect x="41.596" y="142.526" style="fill:none;stroke:#263238;stroke-linecap:round;stroke-linejoin:round;stroke-miterlimit:10;" width="13.694" height="13.694"/>
			
				<line style="fill:none;stroke:#263238;stroke-linecap:round;stroke-linejoin:round;stroke-miterlimit:10;" x1="60.767" y1="149.373" x2="121.019" y2="149.373"/>
		</g>
		<g>
			
				<rect x="41.596" y="161.697" style="fill:none;stroke:#263238;stroke-linecap:round;stroke-linejoin:round;stroke-miterlimit:10;" width="13.694" height="13.693"/>
			
				<line style="fill:none;stroke:#263238;stroke-linecap:round;stroke-linejoin:round;stroke-miterlimit:10;" x1="60.767" y1="168.544" x2="121.019" y2="168.544"/>
		</g>
	</g>
	<g>
		<g>
			
				<rect x="429.497" y="307.461" style="fill:none;stroke:#263238;stroke-linecap:round;stroke-linejoin:round;stroke-miterlimit:10;" width="9.42" height="9.42"/>
			
				<line style="fill:none;stroke:#263238;stroke-linecap:round;stroke-linejoin:round;stroke-miterlimit:10;" x1="442.684" y1="312.171" x2="484.131" y2="312.171"/>
		</g>
		<g>
			
				<rect x="429.497" y="320.649" style="fill:none;stroke:#263238;stroke-linecap:round;stroke-linejoin:round;stroke-miterlimit:10;" width="9.42" height="9.42"/>
			
				<line style="fill:none;stroke:#263238;stroke-linecap:round;stroke-linejoin:round;stroke-miterlimit:10;" x1="442.684" y1="325.359" x2="484.131" y2="325.359"/>
		</g>
		<g>
			
				<rect x="429.497" y="333.836" style="fill:none;stroke:#263238;stroke-linecap:round;stroke-linejoin:round;stroke-miterlimit:10;" width="9.42" height="9.42"/>
			
				<line style="fill:none;stroke:#263238;stroke-linecap:round;stroke-linejoin:round;stroke-miterlimit:10;" x1="442.684" y1="338.546" x2="484.131" y2="338.546"/>
		</g>
		<g>
			
				<rect x="429.497" y="347.024" style="fill:none;stroke:#263238;stroke-linecap:round;stroke-linejoin:round;stroke-miterlimit:10;" width="9.42" height="9.42"/>
			
				<line style="fill:none;stroke:#263238;stroke-linecap:round;stroke-linejoin:round;stroke-miterlimit:10;" x1="442.684" y1="351.734" x2="484.131" y2="351.734"/>
		</g>
		<g>
			
				<rect x="429.497" y="360.212" style="fill:none;stroke:#263238;stroke-linecap:round;stroke-linejoin:round;stroke-miterlimit:10;" width="9.42" height="9.42"/>
			
				<line style="fill:none;stroke:#263238;stroke-linecap:round;stroke-linejoin:round;stroke-miterlimit:10;" x1="442.684" y1="364.922" x2="484.131" y2="364.922"/>
		</g>
		<g>
			
				<rect x="429.497" y="373.4" style="fill:none;stroke:#263238;stroke-linecap:round;stroke-linejoin:round;stroke-miterlimit:10;" width="9.42" height="9.42"/>
			
				<line style="fill:none;stroke:#263238;stroke-linecap:round;stroke-linejoin:round;stroke-miterlimit:10;" x1="442.684" y1="378.109" x2="484.131" y2="378.109"/>
		</g>
	</g>
	<g>
		
			<rect x="207.928" y="64.524" style="fill:none;stroke:#263238;stroke-linecap:round;stroke-linejoin:round;stroke-miterlimit:10;" width="59.301" height="42.45"/>
		<polyline style="fill:none;stroke:#263238;stroke-linecap:round;stroke-linejoin:round;stroke-miterlimit:10;" points="
			207.928,64.524 237.578,85.749 267.229,64.524 		"/>
	</g>
	<g>
		
			<rect x="271.981" y="51.511" style="fill:none;stroke:#263238;stroke-linecap:round;stroke-linejoin:round;stroke-miterlimit:10;" width="36.34" height="26.013"/>
		<polyline style="fill:none;stroke:#263238;stroke-linecap:round;stroke-linejoin:round;stroke-miterlimit:10;" points="
			271.981,51.511 290.15,64.518 308.32,51.511 		"/>
	</g>
	<g>
		
			<rect x="40.703" y="400.735" style="fill:none;stroke:#263238;stroke-linecap:round;stroke-linejoin:round;stroke-miterlimit:10;" width="36.34" height="26.013"/>
		<polyline style="fill:none;stroke:#263238;stroke-linecap:round;stroke-linejoin:round;stroke-miterlimit:10;" points="
			40.703,400.735 58.873,413.741 77.042,400.735 		"/>
	</g>
</g>
<g id="Floor">
	<line style="fill:none;stroke:#263238;stroke-miterlimit:10;" x1="19.347" y1="459.449" x2="483.589" y2="459.449"/>
</g>
<g id="Plants">
	<g>
		<g>
			<path style="fill:#263238;" d="M17.63,332.22c3.261-0.531,9.391-4.687,9.396-4.69c0.063-0.043-3.966-3.209-4.243-3.38
				c-3.208-1.974-10.568-3.902-13.774-1.16c-2.309,1.975-2.082,5.416,0.027,7.43C11.19,332.476,14.853,332.672,17.63,332.22z"/>
			<path style="fill:#263238;" d="M31.41,348.853c2.886-1.319,7.399-6.513,7.756-6.928c2.883,2.542,6.047,4.917,9.382,7.143
				c1.905,1.275,3.864,2.5,5.843,3.704c-0.985-0.415-1.869-0.779-1.998-0.817c-3.616-1.056-11.224-0.972-13.591,2.519
				c-1.707,2.516-0.578,5.773,1.988,7.158c2.62,1.415,6.206,0.637,8.764-0.533c2.597-1.186,6.533-5.537,7.56-6.703
				c0.764,0.454,1.522,0.915,2.288,1.366c3.674,2.163,7.35,4.306,10.891,6.518c1.248,0.779,2.449,1.592,3.654,2.401
				c-0.876-0.368-1.616-0.67-1.734-0.705c-3.616-1.056-11.223-0.972-13.591,2.519c-1.706,2.515-0.578,5.774,1.988,7.158
				c2.621,1.414,6.206,0.637,8.765-0.533c2.478-1.132,6.147-5.115,7.373-6.494c1.209,0.866,2.42,1.731,3.552,2.624
				c0.759,0.628,1.534,1.178,2.26,1.852c0.734,0.651,1.461,1.296,2.18,1.933c1.341,1.28,2.733,2.592,4.009,3.873
				c0.895,0.885,1.731,1.744,2.576,2.607c-1.233-0.79-3.681-2.286-3.9-2.388c-3.413-1.592-10.946-2.661-13.816,0.431
				c-2.067,2.228-1.445,5.619,0.882,7.376c2.376,1.795,6.037,1.569,8.743,0.801c2.98-0.846,8.042-5.099,8.67-5.634
				c1.393,1.433,2.734,2.841,3.979,4.189c2.755,2.97,5.14,5.686,7.12,8.011l2.323-1.5c-2.104-2.369-4.657-5.162-7.629-8.229
				c-1.409-1.461-2.943-2.994-4.534-4.554c0.308-0.432,2.044-2.9,3.376-5.408c3.082,0.793,9.214,0.092,10.005-0.005
				c0.372,1.964,0.714,3.878,1.008,5.689c0.625,3.788,1.098,7.199,1.46,10.126l2.512-1.622c-0.401-2.655-0.895-5.655-1.51-8.937
				c-0.369-1.996-0.803-4.122-1.269-6.299c0.757-0.291,6.926-2.705,9.098-4.92c1.969-2.009,3.919-5.117,3.48-8.063
				c-0.43-2.884-3.111-5.052-6.057-4.302c-4.088,1.04-6.753,8.166-6.987,11.926c-0.015,0.222,0.104,2.645,0.204,4.172
				c-0.195-0.889-0.375-1.754-0.588-2.667c-0.406-1.808-0.867-3.6-1.355-5.529c-0.268-0.923-0.539-1.857-0.812-2.799
				c-0.252-0.94-0.637-1.901-0.954-2.863c-0.782-2.214-1.681-4.418-2.637-6.619c1.582-0.361,7.181-1.722,9.442-3.418
				c2.251-1.688,4.649-4.463,4.661-7.441c0.012-2.916-2.31-5.465-5.334-5.171c-4.199,0.409-7.913,7.05-8.714,10.731
				c-0.05,0.229-0.328,2.935-0.453,4.424c-0.585-1.319-1.162-2.637-1.797-3.952c-1.832-3.796-3.806-7.581-5.757-11.365
				c-0.599-1.159-1.181-2.321-1.768-3.482c0.565-0.122,7.255-1.596,9.788-3.496c2.251-1.687,4.65-4.464,4.661-7.442
				c0.012-2.916-2.31-5.465-5.335-5.17c-4.199,0.409-7.912,7.049-8.714,10.73c-0.06,0.277-0.456,4.171-0.507,5.166
				c-1.293-2.558-2.557-5.118-3.701-7.693c-1.583-3.55-2.94-7.121-4-10.678c0.263-0.056,7.252-1.564,9.847-3.508
				c2.251-1.688,4.65-4.464,4.661-7.442c0.012-2.916-2.31-5.465-5.335-5.17c-4.199,0.409-7.912,7.049-8.714,10.73
				c-0.063,0.289-0.486,4.478-0.508,5.243c-0.062-0.212-0.15-0.424-0.21-0.636c-1.083-3.812-1.652-7.64-2.01-11.25
				c-0.212-2.097-0.297-4.115-0.337-6.078c1.331-0.147,7.404-0.887,9.932-2.379c2.423-1.431,5.112-3.926,5.45-6.885
				c0.332-2.897-1.696-5.686-4.734-5.726c-4.219-0.054-8.638,6.138-9.84,9.708c-0.065,0.194-0.511,2.241-0.814,3.737
				c-0.005-0.887-0.026-1.802-0.012-2.651c0.041-3.19,0.275-6.109,0.504-8.692c0.142-1.467,0.299-2.792,0.459-4.03
				c1.23-0.825,6.147-4.215,7.675-6.66c1.49-2.386,2.728-5.84,1.665-8.622c-1.041-2.724-4.126-4.265-6.84-2.899
				c-3.769,1.895-4.839,9.427-4.26,13.15c0.051,0.322,1.411,5.263,1.476,5.22c0,0,0.06-0.04,0.075-0.05
				c-0.179,1.188-0.355,2.463-0.521,3.861c-0.285,2.584-0.584,5.504-0.694,8.706c-0.119,3.199-0.158,6.678,0.131,10.346
				c0.285,3.677,0.774,7.531,1.79,11.436c0.011,0.044,0.029,0.089,0.04,0.133c-0.652-1.05-2.573-3.925-2.746-4.128
				c-2.433-2.876-8.824-7.003-12.726-5.398c-2.81,1.157-3.667,4.497-2.291,7.068c1.406,2.625,4.825,3.954,7.605,4.39
				c3.135,0.492,9.763-1.35,10.291-1.498c1.002,3.71,2.332,7.436,3.884,11.133c0.886,2.115,1.844,4.217,2.831,6.313
				c-0.593-0.89-1.13-1.681-1.217-1.783c-2.433-2.876-8.824-7.003-12.725-5.397c-2.811,1.157-3.667,4.497-2.29,7.067
				c1.405,2.626,4.825,3.954,7.604,4.391c2.821,0.443,8.504-1.015,10.002-1.42c0.387,0.8,0.765,1.603,1.155,2.402
				c1.871,3.831,3.755,7.646,5.488,11.445c0.612,1.339,1.165,2.679,1.722,4.018c-0.527-0.789-0.978-1.45-1.057-1.543
				c-2.434-2.876-8.824-7.003-12.725-5.398c-2.811,1.158-3.668,4.497-2.291,7.068c1.405,2.625,4.825,3.954,7.605,4.39
				c2.691,0.423,7.949-0.875,9.733-1.349c0.53,1.388,1.063,2.779,1.515,4.149c0.287,0.943,0.628,1.829,0.864,2.792
				c0.253,0.947,0.504,1.886,0.753,2.815c0.412,1.808,0.849,3.669,1.207,5.442c0.258,1.232,0.481,2.41,0.71,3.595
				c-0.593-1.339-1.809-3.936-1.936-4.142c-1.309-2.134-4.261-5.069-7.299-6.513c-0.191-0.316-0.409-0.614-0.657-0.89
				c-1.95-2.168-5.382-2.497-7.426-0.247c-2.836,3.123-1.127,10.537,0.751,13.802c0.111,0.193,1.546,2.148,2.472,3.368
				c-0.654-0.634-1.281-1.257-1.961-1.9c-1.337-1.283-2.709-2.523-4.18-3.865c-0.733-0.623-1.474-1.25-2.222-1.886
				c-0.728-0.645-1.579-1.234-2.374-1.861c-1.873-1.414-3.84-2.758-5.851-4.066c1.121-1.174,5.04-5.398,5.99-8.06
				c0.947-2.649,1.415-6.288-0.217-8.778c-1.599-2.439-4.941-3.285-7.302-1.37c-3.276,2.657-2.711,10.245-1.349,13.757
				c0.085,0.219,1.345,2.629,2.063,3.94c-1.215-0.777-2.424-1.559-3.679-2.305c-3.622-2.156-7.355-4.224-11.071-6.304
				c-1.139-0.636-2.265-1.284-3.396-1.928c0.403-0.414,5.17-5.334,6.235-8.316c0.946-2.649,1.416-6.288-0.217-8.779
				c-1.599-2.438-4.942-3.284-7.302-1.369c-3.277,2.658-2.711,10.244-1.349,13.757c0.103,0.265,1.921,3.73,2.427,4.589
				c-2.489-1.42-4.956-2.858-7.331-4.374c-3.279-2.088-6.381-4.317-9.227-6.7c0.188-0.193,5.186-5.306,6.277-8.359
				c0.947-2.65,1.416-6.288-0.218-8.778c-1.598-2.438-4.941-3.284-7.302-1.369c-3.277,2.657-2.71,10.244-1.349,13.756
				c0.107,0.276,2.066,4.004,2.469,4.653c-0.169-0.142-0.36-0.27-0.526-0.413c-3.005-2.583-5.593-5.462-7.883-8.276
				c-1.334-1.632-2.517-3.267-3.633-4.884c1.028-0.857,5.686-4.825,6.971-7.464c1.232-2.53,2.098-6.095,0.748-8.749
				c-1.322-2.599-4.552-3.807-7.107-2.164c-3.549,2.281-3.819,9.885-2.852,13.525c0.052,0.198,0.81,2.152,1.382,3.566
				c-0.493-0.737-1.015-1.489-1.473-2.205c-1.725-2.683-3.14-5.246-4.375-7.527c-0.692-1.303-1.291-2.494-1.839-3.615
				c0.57-1.367,2.801-6.907,2.727-9.789c-0.073-2.813-0.947-6.375-3.368-8.109c-2.371-1.698-5.793-1.281-7.305,1.354
				c-2.098,3.66,1.166,10.533,3.701,13.319c0.22,0.24,4.08,3.61,4.111,3.54c0,0,0.028-0.067,0.034-0.082
				c0.507,1.089,1.063,2.25,1.696,3.507c1.187,2.312,2.549,4.914,4.224,7.644c1.666,2.733,3.552,5.657,5.817,8.557
				c2.267,2.909,4.799,5.854,7.801,8.551c0.034,0.03,0.073,0.058,0.107,0.088c-1.123-0.516-4.312-1.853-4.569-1.928
				c-3.615-1.057-11.223-0.973-13.591,2.518c-1.705,2.516-0.577,5.774,1.989,7.159C25.267,350.801,28.852,350.022,31.41,348.853z"/>
			<path style="fill:#263238;" d="M81.436,292.967c0.077-0.001-1.538-4.865-1.675-5.16c-1.588-3.416-6.663-9.084-10.85-8.566
				c-3.016,0.373-4.724,3.369-4.075,6.212c0.662,2.903,3.609,5.088,6.175,6.243C74.024,293.052,81.43,292.966,81.436,292.967z"/>
		</g>
		<g>
			<path style="fill:#263238;" d="M379.934,72.314c2.241,2.24,8.912,4.68,8.917,4.682c0.069,0.025,0.274-4.886,0.251-5.197
				c-0.262-3.603-2.888-10.411-6.819-11.369c-2.832-0.689-5.381,1.416-5.766,4.186C376.125,67.446,378.025,70.406,379.934,72.314z"
				/>
			<path style="fill:#263238;" d="M374.716,92.361c2.644,1.507,9.216,2.107,9.739,2.152c-0.362,3.669-0.436,7.462-0.299,11.305
				c0.076,2.197,0.22,4.408,0.393,6.623c-0.229-0.999-0.442-1.891-0.485-2.013c-1.205-3.406-5.535-9.279-9.579-9.164
				c-2.914,0.082-4.816,2.786-4.456,5.56c0.368,2.832,2.984,5.186,5.328,6.521c2.379,1.356,7.971,1.979,9.454,2.125
				c0.075,0.849,0.141,1.697,0.22,2.546c0.376,4.072,0.77,8.133,1.033,12.129c0.094,1.408,0.134,2.798,0.18,4.189
				c-0.205-0.888-0.385-1.633-0.424-1.745c-1.205-3.406-5.535-9.279-9.579-9.164c-2.914,0.082-4.817,2.787-4.456,5.56
				c0.369,2.833,2.984,5.186,5.329,6.521c2.27,1.294,7.427,1.916,9.187,2.097c0.004,1.426,0.01,2.854-0.051,4.235
				c-0.063,0.942-0.057,1.854-0.174,2.797c-0.095,0.936-0.189,1.863-0.282,2.781c-0.244,1.761-0.485,3.579-0.767,5.291
				c-0.187,1.192-0.387,2.324-0.585,3.466c-0.077-1.403-0.285-4.146-0.328-4.373c-0.674-3.549-4.065-10.009-8.08-10.509
				c-2.892-0.359-5.183,2.025-5.246,4.821c-0.065,2.855,2.163,5.577,4.278,7.253c2.329,1.844,8.475,3.399,9.245,3.589
				c-0.334,1.887-0.677,3.72-1.029,5.444c-0.767,3.809-1.544,7.187-2.242,10.031l2.47,0.967c0.665-2.965,1.406-6.517,2.127-10.549
				c0.347-1.915,0.68-3.969,1.002-6.081c0.509-0.003,3.403-0.035,6.101-0.405c1.11,2.843,5.094,7.221,5.612,7.783
				c-1.32,1.391-2.618,2.73-3.862,3.973c-2.597,2.609-4.987,4.89-7.061,6.813l2.67,1.046c1.841-1.801,3.899-3.867,6.108-6.185
				c1.346-1.406,2.757-2.935,4.19-4.519c0.65,0.426,5.988,3.874,8.928,4.322c2.667,0.405,6.179,0.181,8.225-1.812
				c2.003-1.951,2.187-5.253-0.048-7.125c-3.101-2.598-10.14-0.677-13.197,1.248c-0.181,0.113-2,1.564-3.132,2.498
				c0.582-0.65,1.155-1.275,1.746-1.952c1.179-1.33,2.315-2.692,3.543-4.153c0.568-0.726,1.142-1.46,1.723-2.201
				c0.59-0.723,1.122-1.561,1.693-2.347c1.285-1.849,2.495-3.785,3.672-5.762c1.168,1.029,5.366,4.623,7.953,5.432
				c2.576,0.805,6.079,1.116,8.403-0.545c2.276-1.625,2.958-4.861,1.034-7.05c-2.672-3.038-9.922-2.205-13.235-0.766
				c-0.206,0.089-2.468,1.39-3.696,2.128c0.698-1.194,1.401-2.383,2.068-3.614c1.927-3.554,3.765-7.211,5.617-10.851
				c0.566-1.116,1.144-2.22,1.718-3.328c0.412,0.371,5.309,4.751,8.207,5.657c2.575,0.806,6.08,1.116,8.404-0.545
				c2.276-1.625,2.958-4.861,1.033-7.049c-2.672-3.038-9.921-2.205-13.234-0.766c-0.249,0.108-3.501,1.984-4.305,2.501
				c1.266-2.44,2.549-4.859,3.911-7.192c1.875-3.222,3.893-6.28,6.067-9.098c0.191,0.173,5.282,4.767,8.25,5.696
				c2.576,0.805,6.081,1.116,8.404-0.545c2.276-1.625,2.958-4.861,1.033-7.05c-2.672-3.038-9.92-2.205-13.234-0.766
				c-0.26,0.113-3.757,2.133-4.365,2.544c0.13-0.167,0.246-0.355,0.377-0.52c2.359-2.979,5.019-5.568,7.628-7.871
				c1.513-1.341,3.035-2.538,4.541-3.669c0.861,0.953,4.841,5.264,7.42,6.395c2.471,1.084,5.921,1.777,8.413,0.382
				c2.441-1.366,3.474-4.507,1.801-6.894c-2.323-3.313-9.619-3.281-13.07-2.215c-0.188,0.058-2.03,0.859-3.364,1.462
				c0.688-0.501,1.387-1.03,2.056-1.495c2.505-1.756,4.908-3.21,7.046-4.481c1.221-0.712,2.34-1.333,3.393-1.901
				c1.331,0.495,6.726,2.42,9.485,2.239c2.692-0.178,6.073-1.151,7.642-3.538c1.536-2.337,1.006-5.602-1.578-6.948
				c-3.587-1.871-10.049,1.519-12.621,4.057c-0.222,0.22-3.304,4.048-3.235,4.075c0,0,0.065,0.024,0.081,0.03
				c-1.025,0.527-2.116,1.104-3.297,1.759c-2.17,1.226-4.611,2.631-7.163,4.34c-2.556,1.701-5.285,3.62-7.977,5.901
				c-2.702,2.284-5.426,4.824-7.895,7.804c-0.028,0.033-0.053,0.072-0.081,0.106c0.451-1.096,1.612-4.202,1.673-4.451
				c0.874-3.505,0.503-10.793-2.934-12.929c-2.476-1.538-5.554-0.332-6.784,2.18c-1.255,2.566-0.372,5.971,0.847,8.379
				c1.374,2.715,6.524,6.84,6.935,7.168c-2.326,2.859-4.479,5.983-6.486,9.263c-1.149,1.875-2.248,3.799-3.325,5.742
				c0.36-0.96,0.675-1.822,0.706-1.947c0.874-3.506,0.503-10.792-2.934-12.928c-2.476-1.539-5.555-0.333-6.783,2.179
				c-1.255,2.565-0.372,5.971,0.846,8.378c1.237,2.443,5.557,6.049,6.712,6.987c-0.405,0.75-0.819,1.494-1.221,2.245
				c-1.932,3.604-3.845,7.208-5.829,10.686c-0.698,1.227-1.432,2.408-2.161,3.592c0.318-0.852,0.58-1.574,0.608-1.688
				c0.874-3.506,0.503-10.792-2.933-12.928c-2.476-1.538-5.555-0.333-6.785,2.18c-1.255,2.564-0.372,5.971,0.847,8.379
				c1.179,2.331,5.137,5.695,6.506,6.817c-0.783,1.191-1.566,2.385-2.379,3.504c-0.573,0.751-1.072,1.514-1.688,2.237
				c-0.595,0.728-1.185,1.449-1.769,2.163c-1.176,1.334-2.379,2.717-3.558,3.99c-0.814,0.891-1.605,1.725-2.4,2.568
				c0.709-1.212,2.049-3.615,2.138-3.828c0.926-2.214,1.556-6.158,0.976-9.33c0.139-0.326,0.249-0.663,0.325-1.01
				c0.594-2.733-1.074-5.588-3.971-5.917c-4.02-0.456-8.831,5.03-10.319,8.321c-0.088,0.194-0.805,2.408-1.235,3.812
				c0.126-0.864,0.26-1.701,0.379-2.591c0.249-1.76,0.445-3.523,0.664-5.419c0.073-0.919,0.147-1.848,0.221-2.786
				c0.094-0.928,0.075-1.921,0.118-2.891c0.051-2.25-0.007-4.534-0.116-6.833c1.542,0.214,7.026,0.896,9.63,0.143
				c2.592-0.749,5.686-2.424,6.709-5.09c1.001-2.611-0.214-5.686-3.027-6.45c-3.904-1.06-9.491,3.634-11.461,6.662
				c-0.123,0.189-1.292,2.521-1.909,3.814c-0.077-1.381-0.146-2.76-0.269-4.155c-0.353-4.027-0.836-8.092-1.301-12.149
				c-0.143-1.243-0.27-2.483-0.403-3.723c0.548,0.082,7.049,1.033,9.966,0.19c2.592-0.749,5.686-2.423,6.709-5.09
				c1.001-2.611-0.215-5.686-3.028-6.449c-3.905-1.06-9.491,3.633-11.461,6.661c-0.148,0.228-1.826,3.586-2.21,4.461
				c-0.29-2.732-0.554-5.459-0.706-8.157c-0.213-3.722-0.217-7.386,0.041-10.935c0.256,0.039,7.036,1.062,10.023,0.199
				c2.592-0.749,5.686-2.423,6.709-5.09c1.001-2.611-0.214-5.686-3.028-6.45c-3.904-1.06-9.491,3.634-11.461,6.662
				c-0.155,0.238-1.958,3.852-2.237,4.529c0.016-0.211,0.008-0.431,0.026-0.641c0.326-3.787,1.115-7.414,2.021-10.773
				c0.522-1.953,1.131-3.79,1.764-5.565c1.243,0.32,6.942,1.72,9.716,1.241c2.659-0.46,5.919-1.784,7.228-4.322
				c1.282-2.485,0.411-5.676-2.301-6.743c-3.764-1.483-9.833,2.57-12.123,5.363c-0.125,0.152-1.22,1.836-2,3.075
				c0.298-0.797,0.59-1.625,0.89-2.382c1.121-2.846,2.322-5.385,3.405-7.624c0.626-1.268,1.217-2.403,1.782-3.458
				c1.384-0.323,6.945-1.692,9.146-3.365c2.148-1.634,4.43-4.311,4.422-7.167c-0.007-2.797-2.25-5.226-5.149-4.925
				c-4.024,0.419-7.543,6.812-8.289,10.346c-0.063,0.306-0.522,5.199-0.45,5.184c0,0,0.068-0.016,0.083-0.02
				c-0.563,1.005-1.155,2.089-1.778,3.286c-1.134,2.22-2.394,4.738-3.581,7.572c-1.193,2.828-2.411,5.936-3.397,9.324
				c-0.993,3.394-1.865,7.016-2.28,10.864c-0.005,0.043-0.004,0.09-0.008,0.133c-0.228-1.163-0.975-4.394-1.061-4.636
				c-1.204-3.406-5.535-9.279-9.578-9.165c-2.914,0.083-4.817,2.787-4.456,5.561C369.757,88.672,372.372,91.025,374.716,92.361z"/>
			<path style="fill:#263238;" d="M446.248,99.96c0.044,0.059,2.924-3.924,3.077-4.196c1.768-3.15,3.334-10.277,0.583-13.244
				c-1.981-2.137-5.269-1.787-7.118,0.312c-1.888,2.143-1.936,5.66-1.396,8.304C442.026,94.24,446.244,99.955,446.248,99.96z"/>
		</g>
		<g>
			<path style="fill:#263238;" d="M419.222,210.122c1.119,2.334,5.596,6.024,5.599,6.027c0.046,0.038,1.537-3.69,1.604-3.936
				c0.776-2.847,0.6-8.805-2.168-10.609c-1.995-1.299-4.53-0.369-5.578,1.661C417.608,205.338,418.27,208.134,419.222,210.122z"/>
			<path style="fill:#263238;" d="M409.762,224.151c1.628,1.878,6.529,4.124,6.919,4.301c-1.274,2.728-2.361,5.631-3.298,8.629
				c-0.538,1.713-1.026,3.456-1.494,5.209c0.094-0.832,0.173-1.577,0.173-1.682c-0.004-2.951-1.747-8.651-4.893-9.659
				c-2.268-0.728-4.467,0.84-4.942,3.074c-0.485,2.281,0.892,4.805,2.335,6.47c1.465,1.69,5.604,3.688,6.707,4.202
				c-0.172,0.675-0.352,1.346-0.522,2.021c-0.815,3.239-1.614,6.475-2.495,9.625c-0.31,1.11-0.656,2.192-0.998,3.276
				c0.083-0.739,0.147-1.363,0.147-1.459c-0.004-2.951-1.747-8.65-4.894-9.659c-2.267-0.727-4.467,0.84-4.942,3.074
				c-0.484,2.283,0.892,4.805,2.336,6.47c1.398,1.613,5.202,3.491,6.509,4.109c-0.384,1.099-0.767,2.201-1.188,3.249
				c-0.304,0.709-0.547,1.413-0.893,2.108c-0.327,0.696-0.651,1.384-0.972,2.066c-0.666,1.29-1.345,2.626-2.026,3.868
				c-0.467,0.868-0.929,1.686-1.391,2.512c0.321-1.102,0.905-3.271,0.934-3.459c0.443-2.917-0.416-8.814-3.374-10.289
				c-2.131-1.062-4.543,0.154-5.35,2.291c-0.825,2.182,0.153,4.884,1.328,6.749c1.294,2.053,5.608,4.919,6.149,5.273
				c-0.77,1.363-1.531,2.682-2.27,3.915c-1.625,2.726-3.14,5.119-4.449,7.12l1.64,1.415c1.317-2.104,2.852-4.639,4.501-7.551
				c0.787-1.381,1.601-2.873,2.422-4.413c0.393,0.136,2.631,0.897,4.81,1.343c0.084,2.491,1.965,6.946,2.212,7.519
				c-1.394,0.713-2.757,1.393-4.053,2.013c-2.709,1.306-5.169,2.414-7.289,3.333l1.773,1.53c1.907-0.888,4.053-1.921,6.384-3.107
				c1.419-0.718,2.921-1.513,4.455-2.345c0.386,0.504,3.562,4.609,5.706,5.753c1.945,1.036,4.711,1.816,6.829,0.836
				c2.073-0.96,3.11-3.454,1.896-5.502c-1.684-2.843-7.629-3.273-10.507-2.619c-0.17,0.038-1.965,0.662-3.091,1.075
				c0.625-0.343,1.236-0.669,1.875-1.03c1.269-0.704,2.514-1.446,3.857-2.239c0.635-0.405,1.276-0.815,1.924-1.228
				c0.651-0.397,1.288-0.898,1.941-1.349c1.492-1.076,2.95-2.239,4.393-3.443c0.62,1.109,2.879,5.017,4.653,6.343
				c1.766,1.319,4.381,2.509,6.622,1.861c2.194-0.634,3.598-2.943,2.709-5.151c-1.235-3.066-7.046-4.391-9.989-4.181
				c-0.183,0.013-2.279,0.401-3.425,0.636c0.862-0.731,1.726-1.456,2.574-2.223c2.449-2.215,4.858-4.534,7.272-6.836
				c0.739-0.706,1.484-1.4,2.227-2.098c0.216,0.397,2.801,5.101,4.788,6.585c1.765,1.32,4.381,2.51,6.622,1.861
				c2.194-0.635,3.598-2.943,2.709-5.151c-1.234-3.066-7.045-4.391-9.988-4.181c-0.222,0.016-3.236,0.578-3.995,0.759
				c1.637-1.536,3.282-3.052,4.965-4.48c2.319-1.974,4.704-3.782,7.143-5.364c0.1,0.185,2.776,5.106,4.811,6.627
				c1.766,1.32,4.382,2.51,6.623,1.861c2.194-0.635,3.598-2.942,2.709-5.151c-1.234-3.066-7.045-4.391-9.989-4.181
				c-0.231,0.017-3.473,0.623-4.053,0.775c0.145-0.093,0.286-0.207,0.432-0.298c2.626-1.655,5.378-2.928,8.013-3.994
				c1.53-0.622,3.027-1.132,4.494-1.595c0.405,0.968,2.301,5.37,3.981,6.94c1.61,1.505,4.08,2.976,6.378,2.577
				c2.251-0.39,3.9-2.53,3.258-4.822c-0.891-3.183-6.52-5.138-9.469-5.253c-0.16-0.006-1.797,0.111-2.988,0.213
				c0.665-0.199,1.348-0.417,1.99-0.594c2.407-0.673,4.652-1.142,6.644-1.54c1.134-0.217,2.164-0.392,3.13-0.544
				c0.892,0.742,4.525,3.69,6.7,4.299c2.122,0.593,4.992,0.761,6.848-0.652c1.818-1.384,2.295-4.043,0.669-5.782
				c-2.256-2.415-8.154-1.556-10.824-0.299c-0.231,0.109-3.644,2.222-3.598,2.261c0,0,0.043,0.036,0.054,0.045
				c-0.933,0.128-1.93,0.277-3.017,0.461c-2.005,0.356-4.266,0.776-6.697,1.4c-2.431,0.617-5.054,1.355-7.747,2.382
				c-2.701,1.026-5.49,2.244-8.201,3.87c-0.031,0.018-0.06,0.041-0.091,0.06c0.645-0.722,2.382-2.8,2.497-2.975
				c1.624-2.464,3.316-8.179,1.248-10.757c-1.49-1.857-4.189-1.763-5.818-0.161c-1.663,1.636-1.907,4.499-1.621,6.685
				c0.322,2.465,3.17,7.04,3.398,7.404c-2.568,1.572-5.075,3.394-7.51,5.377c-1.394,1.133-2.762,2.317-4.12,3.521
				c0.538-0.642,1.014-1.22,1.072-1.308c1.625-2.464,3.316-8.178,1.248-10.756c-1.49-1.857-4.189-1.763-5.818-0.162
				c-1.663,1.636-1.907,4.499-1.622,6.685c0.29,2.218,2.64,6.168,3.276,7.205c-0.516,0.467-1.036,0.929-1.55,1.398
				c-2.467,2.252-4.918,4.51-7.391,6.651c-0.871,0.755-1.757,1.467-2.64,2.181c0.477-0.57,0.874-1.055,0.927-1.135
				c1.625-2.464,3.316-8.179,1.248-10.756c-1.491-1.857-4.19-1.764-5.819-0.162c-1.663,1.635-1.907,4.499-1.621,6.685
				c0.276,2.116,2.413,5.782,3.163,7.017c-0.926,0.705-1.854,1.413-2.784,2.055c-0.645,0.423-1.236,0.876-1.908,1.265
				c-0.656,0.399-1.306,0.795-1.95,1.187c-1.268,0.708-2.571,1.448-3.824,2.109c-0.869,0.466-1.705,0.894-2.546,1.327
				c0.875-0.742,2.559-2.229,2.686-2.369c1.315-1.455,2.87-4.322,3.284-6.924c0.196-0.214,0.372-0.443,0.524-0.69
				c1.199-1.945,0.689-4.597-1.454-5.636c-2.973-1.442-8.169,1.479-10.208,3.611c-0.12,0.126-1.273,1.636-1.986,2.602
				c0.332-0.631,0.662-1.24,0.995-1.893c0.669-1.288,1.299-2.593,1.982-3.995c0.306-0.689,0.615-1.384,0.927-2.087
				c0.324-0.689,0.579-1.459,0.875-2.195c0.65-1.72,1.225-3.495,1.764-5.296c1.13,0.583,5.17,2.597,7.38,2.723
				c2.2,0.127,5.039-0.324,6.55-2.101c1.48-1.74,1.378-4.439-0.582-5.791c-2.72-1.876-8.299,0.224-10.638,2.023
				c-0.146,0.112-1.679,1.592-2.506,2.421c0.316-1.085,0.636-2.166,0.92-3.274c0.821-3.198,1.551-6.461,2.294-9.713
				c0.227-0.996,0.465-1.986,0.7-2.978c0.4,0.212,5.151,2.709,7.627,2.851c2.2,0.127,5.039-0.324,6.55-2.101
				c1.479-1.74,1.378-4.439-0.583-5.79c-2.721-1.876-8.298,0.224-10.638,2.022c-0.176,0.136-2.38,2.268-2.913,2.837
				c0.518-2.184,1.054-4.356,1.67-6.476c0.846-2.926,1.837-5.749,2.999-8.414c0.186,0.099,5.133,2.727,7.669,2.873
				c2.201,0.127,5.039-0.324,6.55-2.101c1.48-1.74,1.378-4.439-0.583-5.791c-2.72-1.876-8.298,0.224-10.637,2.023
				c-0.184,0.141-2.553,2.436-2.953,2.883c0.069-0.158,0.124-0.33,0.194-0.487c1.278-2.829,2.871-5.409,4.48-7.752
				c0.932-1.363,1.9-2.613,2.869-3.809c0.871,0.584,4.882,3.209,7.149,3.592c2.174,0.367,5.044,0.231,6.741-1.369
				c1.662-1.567,1.857-4.262,0.057-5.82c-2.498-2.164-8.273-0.688-10.796,0.842c-0.138,0.083-1.439,1.084-2.376,1.826
				c0.446-0.533,0.895-1.092,1.332-1.594c1.636-1.889,3.25-3.519,4.692-4.95c0.826-0.807,1.59-1.521,2.311-2.18
				c1.154,0.126,5.81,0.58,7.959-0.111c2.098-0.676,4.583-2.119,5.352-4.322c0.753-2.157-0.316-4.637-2.631-5.191
				c-3.214-0.769-7.66,3.201-9.194,5.722c-0.132,0.218-1.813,3.864-1.753,3.872c0,0,0.056,0.006,0.069,0.007
				c-0.707,0.621-1.457,1.296-2.262,2.049c-1.476,1.403-3.13,3.001-4.814,4.862c-1.687,1.855-3.468,3.919-5.147,6.261
				c-1.686,2.346-3.341,4.9-4.705,7.751c-0.015,0.032-0.027,0.068-0.042,0.1c0.14-0.958,0.441-3.65,0.441-3.859
				c-0.004-2.951-1.746-8.651-4.893-9.66c-2.267-0.726-4.467,0.84-4.942,3.075C406.942,219.964,408.319,222.486,409.762,224.151z"/>
			<path style="fill:#263238;" d="M462.812,249.416c0.018,0.058,3.317-2.23,3.509-2.398c2.217-1.947,5.357-7.013,4.043-10.046
				c-0.946-2.184-3.575-2.807-5.568-1.691c-2.036,1.139-3.028,3.836-3.329,6.019C461.112,243.864,462.811,249.411,462.812,249.416z"
				/>
		</g>
	</g>
</g>
<g id="Screen">
	
		<rect x="93.325" y="128.64" style="fill:#263238;stroke:#263238;stroke-linecap:round;stroke-linejoin:round;stroke-miterlimit:10;" width="326.357" height="312.72"/>
	
		<rect x="98.74" y="124.428" style="fill:#FFFFFF;stroke:#263238;stroke-linecap:round;stroke-linejoin:round;stroke-miterlimit:10;" width="326.357" height="312.72"/>
	
		<line style="fill:none;stroke:#263238;stroke-linecap:round;stroke-linejoin:round;stroke-miterlimit:10;" x1="259.063" y1="139.525" x2="259.063" y2="420.546"/>
	<g>
		
			<rect x="125.984" y="302.67" style="fill:#FFFFFF;stroke:#263238;stroke-linecap:round;stroke-linejoin:round;stroke-miterlimit:10;" width="106.687" height="18.093"/>
		
			<rect x="125.984" y="336.36" style="fill:#FFFFFF;stroke:#263238;stroke-linecap:round;stroke-linejoin:round;stroke-miterlimit:10;" width="106.687" height="18.093"/>
		<path style="fill:#263238;stroke:#263238;stroke-linecap:round;stroke-linejoin:round;stroke-miterlimit:10;" d="M208.914,401.304
			H149.74c-2.675,0-4.843-2.168-4.843-4.843V384.69c0-2.675,2.168-4.843,4.843-4.843h59.174c2.675,0,4.843,2.168,4.843,4.843v11.771
			C213.757,399.136,211.589,401.304,208.914,401.304z"/>
	</g>
</g>
<g id="Bricks">
	<g style="opacity:0.2;">
		<g>
			<rect x="276.626" y="183.103" width="21.278" height="9.672"/>
			<rect x="288.526" y="171.078" width="21.278" height="9.672"/>
			<rect x="301.478" y="183.103" width="21.278" height="9.672"/>
		</g>
		<g>
			<rect x="338.519" y="149.816" width="21.278" height="9.672"/>
			<rect x="350.419" y="137.791" width="21.278" height="9.672"/>
			<rect x="363.371" y="149.816" width="21.278" height="9.672"/>
		</g>
		<g>
			<rect x="301.478" y="213.967" width="21.278" height="9.672"/>
			<rect x="313.378" y="201.942" width="21.278" height="9.672"/>
			<rect x="326.33" y="213.967" width="21.278" height="9.672"/>
		</g>
		<g>
			<rect x="368.017" y="304.958" width="21.278" height="9.672"/>
			<rect x="379.917" y="292.933" width="21.278" height="9.672"/>
			<rect x="392.869" y="304.958" width="21.278" height="9.672"/>
		</g>
		<g>
			<rect x="368.017" y="405.167" width="21.278" height="9.672"/>
			<rect x="379.917" y="393.142" width="21.278" height="9.672"/>
			<rect x="392.869" y="405.167" width="21.278" height="9.672"/>
		</g>
		<g>
			<rect x="282.238" y="327.004" width="21.278" height="9.672"/>
			<rect x="294.138" y="314.979" width="21.278" height="9.672"/>
			<rect x="307.09" y="327.004" width="21.278" height="9.672"/>
		</g>
		<g>
			<rect x="282.238" y="361.877" width="21.278" height="9.672"/>
			<rect x="294.138" y="349.852" width="21.278" height="9.672"/>
			<rect x="307.09" y="361.877" width="21.278" height="9.672"/>
		</g>
		<g>
			<rect x="332.343" y="361.877" width="21.278" height="9.672"/>
			<rect x="344.243" y="349.852" width="21.278" height="9.672"/>
			<rect x="357.195" y="361.877" width="21.278" height="9.672"/>
		</g>
	</g>
</g>
<g id="Email">
	<g>
		
			<rect x="147.938" y="169.827" style="fill:#92E3A9;stroke:#263238;stroke-linecap:round;stroke-linejoin:round;stroke-miterlimit:10;" width="60.121" height="39.965"/>
		<polygon style="fill:#263238;stroke:#263238;stroke-linecap:round;stroke-linejoin:round;stroke-miterlimit:10;" points="
			208.059,169.827 177.999,189.809 147.938,169.827 		"/>
		<polygon style="fill:#FFFFFF;stroke:#263238;stroke-linecap:round;stroke-linejoin:round;stroke-miterlimit:10;" points="
			155.915,175.347 155.915,149.529 200.029,149.529 200.029,175.144 177.999,189.809 		"/>
		
			<line style="fill:none;stroke:#263238;stroke-linecap:round;stroke-linejoin:round;stroke-miterlimit:10;" x1="164.25" y1="158.474" x2="190.881" y2="158.474"/>
		
			<line style="fill:none;stroke:#263238;stroke-linecap:round;stroke-linejoin:round;stroke-miterlimit:10;" x1="164.25" y1="165.182" x2="190.881" y2="165.182"/>
		
			<line style="fill:none;stroke:#263238;stroke-linecap:round;stroke-linejoin:round;stroke-miterlimit:10;" x1="164.25" y1="171.891" x2="190.881" y2="171.891"/>
		<polygon style="fill:#92E3A9;stroke:#263238;stroke-linecap:round;stroke-linejoin:round;stroke-miterlimit:10;" points="
			147.938,209.792 178.074,184.699 208.059,209.792 		"/>
	</g>
</g>
<g id="Text">
	<g>
		<path style="fill:#263238;" d="M120.638,253.599v-4.457c0.743,0,1.37-0.044,1.882-0.134c0.512-0.09,0.909-0.256,1.191-0.5
			c0.282-0.243,0.486-0.596,0.615-1.057c0.128-0.461,0.192-1.063,0.192-1.806v-23.975h6.34v24.244c0,1.717-0.205,3.145-0.615,4.284
			c-0.41,1.14-1.134,1.992-2.171,2.555c-1.038,0.563-2.492,0.845-4.361,0.845H120.638z"/>
		<path style="fill:#263238;" d="M144.229,253.215c-2.28,0-4.086-0.41-5.418-1.23c-1.332-0.82-2.286-1.991-2.862-3.516
			c-0.577-1.524-0.865-3.349-0.865-5.475v-11.604c0-2.126,0.288-3.944,0.865-5.456c0.576-1.511,1.53-2.664,2.862-3.458
			c1.331-0.794,3.137-1.191,5.418-1.191c2.305,0,4.13,0.403,5.475,1.21c1.345,0.807,2.306,1.959,2.882,3.458
			c0.576,1.499,0.865,3.311,0.865,5.437v11.604c0,2.126-0.288,3.952-0.865,5.475c-0.576,1.525-1.537,2.696-2.882,3.516
			C148.36,252.805,146.535,253.215,144.229,253.215z M144.229,248.643c0.819,0,1.421-0.186,1.806-0.557
			c0.384-0.371,0.64-0.87,0.768-1.498c0.128-0.627,0.192-1.3,0.192-2.017v-14.716c0-0.717-0.064-1.383-0.192-1.998
			c-0.128-0.614-0.384-1.107-0.768-1.479c-0.384-0.371-0.987-0.557-1.806-0.557c-0.769,0-1.345,0.186-1.729,0.557
			c-0.384,0.372-0.641,0.865-0.768,1.479c-0.129,0.615-0.192,1.281-0.192,1.998v14.716c0,0.717,0.058,1.39,0.173,2.017
			c0.115,0.628,0.365,1.127,0.749,1.498C142.846,248.457,143.435,248.643,144.229,248.643z"/>
		<path style="fill:#263238;" d="M157.753,252.792v-31.122h6.301v31.122H157.753z"/>
		<path style="fill:#263238;" d="M168.818,252.792v-31.122h4.419l6.916,16.214v-16.214h5.225v31.122h-4.227l-6.916-17.213v17.213
			H168.818z"/>
		<path style="fill:#263238;" d="M208.469,253.215c-2.357,0-4.188-0.404-5.494-1.211s-2.222-1.972-2.747-3.496
			c-0.525-1.524-0.787-3.375-0.787-5.552v-21.286h6.263v22.169c0,0.768,0.058,1.525,0.173,2.267
			c0.115,0.743,0.371,1.344,0.768,1.806c0.397,0.461,1.005,0.691,1.825,0.691c0.845,0,1.466-0.23,1.864-0.691
			c0.397-0.461,0.647-1.063,0.749-1.806c0.102-0.743,0.153-1.499,0.153-2.267v-22.169h6.263v21.286c0,2.177-0.263,4.028-0.788,5.552
			c-0.525,1.524-1.441,2.689-2.747,3.496C212.658,252.811,210.826,253.215,208.469,253.215z"/>
		<path style="fill:#263238;" d="M229.985,253.215c-1.921,0-3.522-0.353-4.803-1.057c-1.281-0.704-2.248-1.768-2.901-3.189
			c-0.653-1.421-1.031-3.233-1.134-5.437l5.456-0.922c0.051,1.281,0.186,2.351,0.404,3.208c0.217,0.858,0.55,1.498,0.999,1.921
			c0.448,0.423,1.005,0.634,1.672,0.634c0.819,0,1.377-0.256,1.671-0.768c0.294-0.512,0.442-1.101,0.442-1.768
			c0-1.306-0.314-2.401-0.942-3.285c-0.628-0.884-1.454-1.773-2.478-2.67l-3.228-2.805c-1.153-0.973-2.094-2.075-2.824-3.304
			c-0.73-1.23-1.095-2.741-1.095-4.534c0-2.561,0.749-4.527,2.248-5.898c1.498-1.37,3.554-2.055,6.167-2.055
			c1.562,0,2.843,0.256,3.842,0.768c0.999,0.513,1.773,1.197,2.325,2.055c0.551,0.859,0.935,1.793,1.153,2.805
			c0.217,1.012,0.352,2.017,0.404,3.016l-5.418,0.807c-0.052-0.947-0.134-1.78-0.25-2.498c-0.115-0.717-0.346-1.28-0.691-1.691
			c-0.346-0.409-0.864-0.615-1.556-0.615c-0.743,0-1.294,0.276-1.652,0.826c-0.359,0.551-0.538,1.159-0.538,1.825
			c0,1.102,0.25,2.005,0.749,2.709c0.5,0.705,1.185,1.441,2.056,2.209l3.151,2.766c1.306,1.128,2.427,2.415,3.362,3.861
			c0.935,1.448,1.402,3.234,1.402,5.36c0,1.46-0.333,2.78-0.999,3.958c-0.667,1.179-1.595,2.101-2.786,2.766
			C233.001,252.882,231.599,253.215,229.985,253.215z"/>
	</g>
	<g>
		<path style="fill:#263238;" d="M144.808,275.91v-17.352h1.628v17.352H144.808z"/>
		<path style="fill:#263238;" d="M151.662,275.91v-16.088h-3.278v-1.264h8.076v1.264h-3.171v16.088H151.662z"/>
		<path style="fill:#263238;" d="M158.345,263.464l-0.385-0.578c0.4-0.157,0.664-0.4,0.793-0.728
			c0.128-0.329,0.193-0.821,0.193-1.478h-0.857v-2.121h1.799c0,0.3,0,0.6,0,0.9c0,0.3,0,0.6,0,0.9c0,0.886-0.107,1.582-0.321,2.089
			C159.352,262.954,158.945,263.293,158.345,263.464z"/>
		<path style="fill:#263238;" d="M165.8,276.124c-0.943,0-1.725-0.196-2.346-0.589c-0.621-0.393-1.089-0.943-1.403-1.65
			c-0.314-0.707-0.507-1.532-0.578-2.475l1.435-0.428c0.072,0.714,0.2,1.36,0.386,1.939c0.185,0.578,0.478,1.035,0.878,1.371
			c0.4,0.336,0.95,0.503,1.649,0.503c0.771,0,1.371-0.2,1.799-0.6c0.429-0.4,0.643-1.035,0.643-1.906
			c0-0.757-0.189-1.417-0.568-1.982c-0.378-0.564-0.896-1.153-1.553-1.767l-3.063-2.935c-0.543-0.528-0.943-1.074-1.2-1.639
			c-0.257-0.564-0.385-1.182-0.385-1.853c0-1.2,0.357-2.121,1.071-2.763s1.664-0.964,2.849-0.964c0.614,0,1.168,0.078,1.66,0.235
			c0.493,0.158,0.914,0.411,1.264,0.761c0.35,0.35,0.624,0.803,0.825,1.36c0.2,0.557,0.335,1.235,0.407,2.035l-1.392,0.364
			c-0.057-0.728-0.175-1.353-0.353-1.874c-0.179-0.521-0.457-0.917-0.835-1.189c-0.379-0.271-0.903-0.407-1.574-0.407
			c-0.715,0-1.3,0.186-1.757,0.557c-0.457,0.372-0.686,0.95-0.686,1.735c0,0.471,0.089,0.9,0.268,1.285
			c0.178,0.386,0.496,0.8,0.954,1.243l3.063,2.892c0.685,0.643,1.278,1.357,1.778,2.142c0.5,0.786,0.749,1.671,0.749,2.656
			c0,0.872-0.168,1.6-0.503,2.185c-0.336,0.586-0.803,1.025-1.403,1.317C167.278,275.978,166.585,276.124,165.8,276.124z"/>
		<path style="fill:#263238;" d="M176.339,275.91v-17.352h6.234v1.221h-4.606v6.533h3.835v1.2h-3.835v8.397H176.339z"/>
		<path style="fill:#263238;" d="M184.607,275.91v-17.352h3.92c1.085,0,1.939,0.175,2.56,0.525c0.621,0.35,1.068,0.857,1.339,1.521
			c0.271,0.664,0.407,1.453,0.407,2.367c0,0.643-0.072,1.25-0.214,1.821c-0.143,0.572-0.386,1.057-0.729,1.457
			c-0.343,0.4-0.828,0.664-1.457,0.793l2.656,8.868h-1.585l-2.549-8.526h-2.721v8.526H184.607z M186.235,266.185h2.206
			c0.729,0,1.293-0.121,1.693-0.364c0.4-0.242,0.686-0.6,0.857-1.071c0.171-0.471,0.257-1.064,0.257-1.778
			c0-1.071-0.186-1.871-0.557-2.399c-0.371-0.528-1.106-0.792-2.206-0.792h-2.25V266.185z"/>
		<path style="fill:#263238;" d="M195.554,275.91v-17.352h6.276v1.264h-4.627v6.513h3.771v1.199h-3.771v7.155h4.67v1.221H195.554z"
			/>
		<path style="fill:#263238;" d="M204.079,275.91v-17.352h6.276v1.264h-4.627v6.513h3.77v1.199h-3.77v7.155h4.67v1.221H204.079z"/>
		<path style="fill:#263238;" d="M212.412,275.91v-1.864h1.671v1.864H212.412z M212.969,272.183l-0.535-13.624h1.671l-0.578,13.624
			H212.969z"/>
	</g>
	<g>
		<g>
			<path style="fill:#CCCCCC;" d="M162.038,316.326c-0.58,0-1.024-0.115-1.334-0.346c-0.31-0.23-0.521-0.555-0.632-0.973
				c-0.112-0.418-0.168-0.907-0.168-1.467v-5.306h1.067v5.355c0,0.342,0.023,0.655,0.069,0.938c0.046,0.283,0.147,0.507,0.301,0.672
				c0.155,0.164,0.387,0.247,0.697,0.247c0.316,0,0.55-0.082,0.702-0.247c0.151-0.165,0.25-0.389,0.296-0.672
				c0.046-0.283,0.069-0.596,0.069-0.938v-5.355h1.057v5.306c0,0.56-0.056,1.049-0.168,1.467c-0.112,0.418-0.321,0.743-0.628,0.973
				C163.061,316.211,162.617,316.326,162.038,316.326z"/>
			<path style="fill:#CCCCCC;" d="M167.225,316.326c-0.461,0-0.845-0.099-1.151-0.296c-0.306-0.198-0.538-0.471-0.696-0.82
				c-0.158-0.349-0.251-0.754-0.277-1.215l0.988-0.267c0.02,0.283,0.064,0.556,0.133,0.82c0.069,0.263,0.183,0.479,0.341,0.647
				c0.158,0.168,0.379,0.252,0.662,0.252c0.29,0,0.509-0.081,0.657-0.242c0.148-0.161,0.222-0.394,0.222-0.697
				c0-0.362-0.082-0.654-0.247-0.874c-0.165-0.221-0.372-0.443-0.622-0.667l-1.343-1.185c-0.264-0.23-0.458-0.482-0.583-0.756
				c-0.126-0.273-0.188-0.611-0.188-1.013c0-0.586,0.168-1.04,0.504-1.363c0.336-0.323,0.794-0.484,1.373-0.484
				c0.316,0,0.594,0.041,0.835,0.124c0.24,0.082,0.441,0.209,0.603,0.38c0.161,0.171,0.29,0.387,0.385,0.647
				c0.096,0.26,0.16,0.565,0.193,0.914l-0.949,0.257c-0.02-0.263-0.059-0.505-0.119-0.727c-0.059-0.22-0.163-0.398-0.311-0.533
				c-0.148-0.135-0.361-0.202-0.637-0.202c-0.277,0-0.492,0.074-0.647,0.222c-0.155,0.148-0.232,0.367-0.232,0.657
				c0,0.244,0.041,0.445,0.123,0.603c0.083,0.158,0.215,0.32,0.4,0.484l1.354,1.185c0.303,0.264,0.57,0.578,0.8,0.944
				c0.23,0.366,0.346,0.799,0.346,1.299c0,0.395-0.082,0.736-0.247,1.023c-0.165,0.286-0.39,0.505-0.677,0.657
				C167.931,316.25,167.6,316.326,167.225,316.326z"/>
			<path style="fill:#CCCCCC;" d="M170.011,316.237v-8.003h3.102v0.83h-1.986v2.648h1.61v0.79h-1.61v2.934h2.005v0.8H170.011z"/>
			<path style="fill:#CCCCCC;" d="M174.032,316.237v-8.003h1.61c0.533,0,0.975,0.071,1.324,0.213
				c0.349,0.142,0.608,0.369,0.776,0.682c0.168,0.313,0.252,0.723,0.252,1.23c0,0.31-0.033,0.591-0.098,0.845
				c-0.066,0.253-0.172,0.468-0.316,0.642c-0.145,0.174-0.336,0.301-0.573,0.38l1.136,4.011h-1.077l-1.047-3.754h-0.87v3.754
				H174.032z M175.148,311.682h0.425c0.316,0,0.573-0.039,0.771-0.118c0.198-0.079,0.343-0.214,0.435-0.405
				c0.092-0.191,0.138-0.458,0.138-0.8c0-0.467-0.086-0.805-0.257-1.013c-0.172-0.207-0.51-0.311-1.018-0.311h-0.494V311.682z"/>
			<path style="fill:#CCCCCC;" d="M179.159,316.237v-8.003h0.761l2.272,5.315v-5.315h0.929v8.003h-0.711l-2.302-5.464v5.464H179.159
				z"/>
			<path style="fill:#CCCCCC;" d="M183.941,316.237l1.699-8.003h1.077l1.709,8.003h-1.057l-0.365-2.016h-1.63l-0.385,2.016H183.941z
				 M185.522,313.422h1.334l-0.672-3.606L185.522,313.422z"/>
			<path style="fill:#CCCCCC;" d="M189.216,316.237l0.148-8.003h1.097l1.413,6.491l1.423-6.491h1.087l0.148,8.003h-0.899
				l-0.089-5.809l-1.353,5.809h-0.632l-1.344-5.809l-0.089,5.809H189.216z"/>
			<path style="fill:#CCCCCC;" d="M195.757,316.237v-8.003h3.102v0.83h-1.986v2.648h1.61v0.79h-1.61v2.934h2.006v0.8H195.757z"/>
		</g>
		<g>
			<path style="fill:#CCCCCC;" d="M159.198,349.345v-8.003h1.986c0.481,0,0.864,0.088,1.151,0.262
				c0.287,0.174,0.496,0.427,0.627,0.756c0.131,0.33,0.197,0.728,0.197,1.195c0,0.421-0.074,0.787-0.222,1.097
				c-0.148,0.31-0.367,0.548-0.657,0.716c-0.29,0.168-0.652,0.252-1.087,0.252h-0.88v3.725H159.198z M160.314,344.819h0.514
				c0.323,0,0.576-0.036,0.761-0.108c0.184-0.072,0.316-0.199,0.395-0.38c0.079-0.182,0.118-0.437,0.118-0.766
				c0-0.382-0.028-0.675-0.084-0.879c-0.056-0.204-0.173-0.346-0.351-0.425c-0.178-0.079-0.454-0.118-0.83-0.118h-0.524V344.819z"/>
			<path style="fill:#CCCCCC;" d="M163.13,349.345l1.699-8.003h1.077l1.709,8.003h-1.057l-0.365-2.016h-1.631l-0.385,2.016H163.13z
				 M164.711,346.529h1.334l-0.672-3.606L164.711,346.529z"/>
			<path style="fill:#CCCCCC;" d="M170.312,349.433c-0.461,0-0.845-0.099-1.151-0.296c-0.306-0.198-0.538-0.471-0.696-0.82
				c-0.158-0.349-0.25-0.754-0.277-1.216l0.988-0.266c0.02,0.283,0.064,0.556,0.133,0.82c0.069,0.263,0.183,0.478,0.341,0.646
				c0.158,0.168,0.379,0.253,0.662,0.253c0.29,0,0.509-0.081,0.657-0.242c0.148-0.162,0.222-0.394,0.222-0.697
				c0-0.362-0.082-0.654-0.247-0.874c-0.165-0.221-0.372-0.443-0.622-0.667l-1.344-1.185c-0.264-0.231-0.458-0.482-0.583-0.756
				c-0.125-0.273-0.188-0.611-0.188-1.013c0-0.586,0.168-1.04,0.504-1.363c0.336-0.323,0.794-0.485,1.373-0.485
				c0.316,0,0.594,0.042,0.835,0.124c0.24,0.083,0.441,0.209,0.603,0.38c0.161,0.171,0.29,0.387,0.385,0.647
				c0.096,0.26,0.16,0.565,0.193,0.914l-0.949,0.256c-0.02-0.263-0.059-0.505-0.118-0.726c-0.059-0.22-0.163-0.399-0.311-0.534
				c-0.148-0.134-0.361-0.202-0.637-0.202c-0.277,0-0.492,0.074-0.647,0.222c-0.155,0.148-0.232,0.367-0.232,0.657
				c0,0.244,0.041,0.445,0.124,0.603c0.082,0.158,0.215,0.319,0.4,0.484l1.354,1.185c0.303,0.264,0.57,0.578,0.8,0.944
				c0.23,0.366,0.346,0.798,0.346,1.299c0,0.395-0.082,0.736-0.247,1.023c-0.165,0.286-0.39,0.505-0.677,0.657
				C171.018,349.357,170.688,349.433,170.312,349.433z"/>
			<path style="fill:#CCCCCC;" d="M174.985,349.433c-0.461,0-0.845-0.099-1.151-0.296c-0.306-0.198-0.538-0.471-0.696-0.82
				c-0.158-0.349-0.25-0.754-0.277-1.216l0.988-0.266c0.02,0.283,0.064,0.556,0.133,0.82c0.069,0.263,0.183,0.478,0.341,0.646
				c0.158,0.168,0.379,0.253,0.662,0.253c0.29,0,0.509-0.081,0.657-0.242c0.148-0.162,0.222-0.394,0.222-0.697
				c0-0.362-0.082-0.654-0.247-0.874c-0.165-0.221-0.372-0.443-0.622-0.667l-1.343-1.185c-0.264-0.231-0.458-0.482-0.583-0.756
				c-0.125-0.273-0.188-0.611-0.188-1.013c0-0.586,0.168-1.04,0.504-1.363c0.336-0.323,0.794-0.485,1.373-0.485
				c0.316,0,0.594,0.042,0.835,0.124c0.24,0.083,0.441,0.209,0.603,0.38c0.161,0.171,0.29,0.387,0.385,0.647
				c0.096,0.26,0.16,0.565,0.193,0.914l-0.949,0.256c-0.02-0.263-0.059-0.505-0.118-0.726c-0.059-0.22-0.163-0.399-0.311-0.534
				c-0.148-0.134-0.361-0.202-0.637-0.202c-0.277,0-0.493,0.074-0.647,0.222c-0.155,0.148-0.232,0.367-0.232,0.657
				c0,0.244,0.041,0.445,0.124,0.603c0.082,0.158,0.215,0.319,0.4,0.484l1.354,1.185c0.303,0.264,0.57,0.578,0.8,0.944
				c0.23,0.366,0.346,0.798,0.346,1.299c0,0.395-0.082,0.736-0.247,1.023c-0.165,0.286-0.39,0.505-0.677,0.657
				C175.691,349.357,175.361,349.433,174.985,349.433z"/>
			<path style="fill:#CCCCCC;" d="M178.809,349.345l-1.304-8.003h0.929l0.859,5.75l1.077-5.721h0.79l1.087,5.75l0.84-5.78h0.909
				l-1.284,8.003h-0.81l-1.117-5.928l-1.126,5.928H178.809z"/>
			<path style="fill:#CCCCCC;" d="M186.94,349.433c-0.54,0-0.972-0.105-1.294-0.316s-0.553-0.512-0.691-0.904
				c-0.138-0.392-0.207-0.852-0.207-1.378v-3.034c0-0.527,0.071-0.979,0.212-1.358c0.141-0.379,0.372-0.669,0.691-0.87
				c0.32-0.201,0.749-0.301,1.29-0.301c0.54,0,0.968,0.103,1.284,0.306c0.316,0.204,0.545,0.494,0.686,0.87
				c0.142,0.376,0.213,0.827,0.213,1.353v3.043c0,0.52-0.071,0.974-0.213,1.364c-0.141,0.388-0.37,0.69-0.686,0.904
				C187.908,349.326,187.479,349.433,186.94,349.433z M186.94,348.554c0.296,0,0.52-0.061,0.672-0.183
				c0.151-0.121,0.253-0.293,0.306-0.514c0.052-0.22,0.079-0.479,0.079-0.775v-3.507c0-0.297-0.027-0.552-0.079-0.766
				c-0.053-0.214-0.155-0.379-0.306-0.494c-0.152-0.115-0.376-0.173-0.672-0.173c-0.297,0-0.522,0.058-0.677,0.173
				c-0.155,0.115-0.258,0.28-0.311,0.494c-0.053,0.215-0.079,0.469-0.079,0.766v3.507c0,0.296,0.027,0.555,0.079,0.775
				c0.053,0.221,0.156,0.392,0.311,0.514C186.417,348.493,186.643,348.554,186.94,348.554z"/>
			<path style="fill:#CCCCCC;" d="M190.219,349.345v-8.003h1.61c0.534,0,0.975,0.072,1.324,0.213
				c0.349,0.142,0.608,0.369,0.776,0.682c0.168,0.313,0.252,0.723,0.252,1.229c0,0.31-0.033,0.592-0.098,0.845
				c-0.066,0.253-0.172,0.468-0.316,0.642c-0.145,0.174-0.336,0.302-0.573,0.38l1.136,4.011h-1.077l-1.047-3.755h-0.87v3.755
				H190.219z M191.336,344.79h0.425c0.316,0,0.573-0.039,0.771-0.118c0.198-0.08,0.342-0.215,0.435-0.405
				c0.092-0.191,0.138-0.458,0.138-0.801c0-0.467-0.086-0.805-0.256-1.012c-0.172-0.207-0.511-0.311-1.018-0.311h-0.494V344.79z"/>
			<path style="fill:#CCCCCC;" d="M195.347,349.345v-8.003h1.739c0.592,0,1.062,0.091,1.408,0.272
				c0.346,0.182,0.592,0.454,0.741,0.815c0.148,0.363,0.222,0.814,0.222,1.354v2.943c0,0.567-0.074,1.044-0.222,1.433
				c-0.148,0.389-0.389,0.683-0.721,0.884c-0.333,0.201-0.779,0.302-1.339,0.302H195.347z M196.463,348.544h0.632
				c0.408,0,0.698-0.079,0.869-0.236c0.171-0.158,0.275-0.389,0.311-0.692c0.036-0.302,0.054-0.668,0.054-1.097v-2.598
				c0-0.415-0.026-0.751-0.079-1.008c-0.053-0.257-0.168-0.445-0.346-0.563c-0.178-0.119-0.458-0.178-0.839-0.178h-0.603V348.544z"
				/>
		</g>
	</g>
	<g>
		<path style="fill:#92E3A9;" d="M158.872,396.916c-0.746,0-1.368-0.137-1.866-0.41c-0.498-0.274-0.873-0.687-1.127-1.239
			c-0.254-0.553-0.401-1.257-0.44-2.113l2.12-0.358c0.02,0.498,0.072,0.913,0.156,1.247c0.085,0.333,0.214,0.582,0.388,0.747
			c0.174,0.164,0.391,0.246,0.649,0.246c0.319,0,0.535-0.1,0.65-0.299c0.114-0.199,0.171-0.428,0.171-0.687
			c0-0.508-0.122-0.933-0.366-1.276c-0.244-0.344-0.565-0.69-0.963-1.038l-1.254-1.09c-0.448-0.378-0.814-0.806-1.097-1.284
			c-0.284-0.478-0.425-1.065-0.425-1.762c0-0.995,0.291-1.758,0.873-2.292c0.582-0.532,1.381-0.798,2.396-0.798
			c0.607,0,1.105,0.1,1.493,0.299c0.388,0.199,0.689,0.465,0.903,0.798c0.214,0.334,0.363,0.697,0.448,1.09
			c0.084,0.394,0.137,0.784,0.157,1.172l-2.105,0.314c-0.02-0.368-0.052-0.691-0.097-0.97c-0.044-0.279-0.134-0.498-0.268-0.657
			c-0.134-0.159-0.336-0.239-0.605-0.239c-0.289,0-0.503,0.107-0.642,0.32c-0.14,0.215-0.209,0.451-0.209,0.71
			c0,0.428,0.097,0.779,0.291,1.053c0.194,0.274,0.46,0.56,0.799,0.859l1.225,1.074c0.508,0.438,0.943,0.939,1.306,1.501
			c0.363,0.563,0.545,1.257,0.545,2.083c0,0.567-0.129,1.08-0.388,1.538c-0.259,0.458-0.62,0.816-1.082,1.075
			C160.044,396.786,159.499,396.916,158.872,396.916z"/>
		<path style="fill:#92E3A9;" d="M163.113,396.752v-12.094h2.449v12.094H163.113z"/>
		<path style="fill:#92E3A9;" d="M170.503,396.931c-0.816,0-1.463-0.172-1.941-0.515c-0.478-0.344-0.819-0.831-1.023-1.464
			c-0.204-0.632-0.306-1.366-0.306-2.202v-4.047c0-0.866,0.105-1.612,0.314-2.239c0.209-0.627,0.575-1.11,1.097-1.448
			c0.522-0.339,1.232-0.508,2.127-0.508c0.866,0,1.55,0.144,2.053,0.433c0.502,0.289,0.863,0.697,1.083,1.225
			c0.219,0.528,0.328,1.155,0.328,1.881v0.702h-2.404v-0.852c0-0.318-0.02-0.599-0.06-0.844c-0.04-0.243-0.132-0.435-0.277-0.575
			c-0.144-0.139-0.376-0.209-0.694-0.209c-0.329,0-0.567,0.085-0.717,0.254c-0.149,0.169-0.244,0.386-0.283,0.649
			c-0.04,0.264-0.06,0.545-0.06,0.844v5.361c0,0.339,0.03,0.642,0.09,0.91c0.06,0.269,0.171,0.478,0.336,0.627
			c0.164,0.149,0.4,0.224,0.709,0.224c0.309,0,0.548-0.08,0.717-0.239c0.169-0.158,0.286-0.376,0.351-0.649
			c0.065-0.274,0.097-0.585,0.097-0.933v-1.284h-1.18v-1.493h3.404v6.212h-1.613l-0.149-1.09c-0.159,0.368-0.398,0.672-0.716,0.911
			C171.469,396.812,171.041,396.931,170.503,396.931z"/>
		<path style="fill:#92E3A9;" d="M175.953,396.752v-12.094h1.717l2.688,6.3v-6.3h2.031v12.094h-1.642l-2.688-6.689v6.689H175.953z"
			/>
		<path style="fill:#92E3A9;" d="M191.361,396.916c-0.916,0-1.627-0.156-2.135-0.47c-0.508-0.314-0.863-0.767-1.068-1.359
			c-0.204-0.593-0.306-1.311-0.306-2.158v-8.272h2.434v8.615c0,0.299,0.022,0.593,0.067,0.882c0.045,0.289,0.144,0.522,0.299,0.701
			s0.391,0.269,0.709,0.269c0.329,0,0.57-0.09,0.724-0.269c0.154-0.179,0.252-0.413,0.291-0.701c0.039-0.289,0.06-0.583,0.06-0.882
			v-8.615h2.434v8.272c0,0.846-0.102,1.565-0.306,2.158c-0.204,0.592-0.56,1.044-1.067,1.359
			C192.988,396.759,192.277,396.916,191.361,396.916z"/>
		<path style="fill:#92E3A9;" d="M196.587,396.752v-12.094h3.837c0.726,0,1.319,0.137,1.777,0.41
			c0.458,0.274,0.799,0.67,1.023,1.188s0.336,1.145,0.336,1.881c0,0.866-0.147,1.543-0.441,2.031s-0.694,0.834-1.202,1.037
			c-0.507,0.205-1.09,0.307-1.747,0.307h-1.12v5.24H196.587z M199.05,389.779h0.866c0.358,0,0.635-0.057,0.829-0.172
			c0.194-0.114,0.326-0.296,0.396-0.545c0.069-0.249,0.104-0.568,0.104-0.956c0-0.368-0.028-0.676-0.082-0.925
			c-0.055-0.249-0.177-0.443-0.366-0.583c-0.189-0.139-0.488-0.209-0.896-0.209h-0.851V389.779z"/>
	</g>
</g>
<g id="Character">
	<g>
		<g>
			<path style="fill:#FFFFFF;stroke:#263238;stroke-miterlimit:10;" d="M325.678,287.012c0,0-3.285,17.94-3.79,23.246
				c-0.505,5.306-1.011,26.91,2.779,41.565c3.79,14.655,9.349,25.52,9.349,25.52s2.527,10.36,4.043,13.139
				c1.516,2.779,14.15,24.257,14.15,24.257s-0.758,8.844-1.263,10.36c-0.505,1.516-2.274,10.865-1.769,13.644
				c0.505,2.779,1.263,4.548,0.505,8.086c-0.758,3.537-1.769,7.075,0,10.107c1.769,3.032,6.064,3.285,7.327,1.516
				c1.263-1.769,3.538-5.306,2.78-10.36c-0.758-5.053-3.285-11.623-2.78-14.402c0.505-2.779,2.274-6.317,2.274-6.317
				s9.602,19.709,10.107,21.225c0.505,1.516,1.516,7.833,2.021,9.854c0.505,2.021,3.285-0.758,4.295-2.021
				c1.011-1.263,4.801-6.57,4.043-10.107c-0.758-3.538-3.032-9.854-3.032-9.854l3.776,4.978c0.37,0.488,1.142,0.103,0.972-0.486
				c-0.706-2.435-1.662-5.648-1.969-6.261c-0.505-1.011-0.758-4.295-2.779-7.075c-2.021-2.78-7.58-0.253-7.58-0.253l-4.295-13.644
				c0,0,7.833-25.773,6.317-34.364c-1.516-8.591-2.274-14.908-1.769-16.677c0.505-1.769,10.107-28.426,10.107-33.985
				c0-5.559,0.253-18.951-2.779-26.278c-3.032-7.327-7.075-14.15-7.075-14.15L325.678,287.012z"/>
			<path style="fill:#263238;stroke:#263238;stroke-miterlimit:10;" d="M368.225,424.473l-3.383-10.744
				c0,0,7.833-25.773,6.317-34.364c-1.516-8.591-2.274-14.908-1.769-16.677c0.505-1.769,9.219-28.497,10.107-33.985
				c1.666-10.296,0.253-18.951-2.779-26.278c-3.032-7.327-7.075-14.15-7.075-14.15l-43.965-1.263c0,0-3.285,17.94-3.79,23.246
				c-0.505,5.306-1.011,26.91,2.779,41.565s9.349,25.52,9.349,25.52s2.527,10.36,4.043,13.139
				c1.516,2.779,14.15,24.257,14.15,24.257s-0.436,5.079-0.867,8.198c1.592,1.062,3.831,2.275,5.92,2.414l2.021,2.021
				C359.284,427.373,365.026,429.901,368.225,424.473z"/>
			<path style="fill:none;stroke:#FFFFFF;stroke-linecap:round;stroke-linejoin:round;stroke-miterlimit:10;" d="M361.7,403.142
				c-1.213-4.666-2.735-10.431-3.68-13.671c-1.769-6.064-7.328-21.477-7.328-21.477l-4.548-46.113l-8.591-5.559"/>
			<path style="fill:none;stroke:#FFFFFF;stroke-linecap:round;stroke-linejoin:round;stroke-miterlimit:10;" d="M363.579,410.444
				c0,0-0.376-1.48-0.947-3.696"/>
			<path style="fill:none;stroke:#FFFFFF;stroke-linecap:round;stroke-linejoin:round;stroke-miterlimit:10;" d="M354.97,310.964
				c-2.435,3.825-5.159,8.51-6.298,11.928"/>
			<path style="fill:none;stroke:#FFFFFF;stroke-linecap:round;stroke-linejoin:round;stroke-miterlimit:10;" d="M359.537,304.194
				c0,0-1.025,1.417-2.461,3.554"/>
			<path style="fill:#263238;stroke:#263238;stroke-miterlimit:10;" d="M379.498,434.7c-0.505-1.011-0.758-4.296-2.779-7.075
				c-0.604-0.831-1.527-1.182-2.521-1.273c1.727,4.343,0.126,7.832,1.005,11.128c1.011,3.79,1.769,7.075,0.253,9.854
				c-1.516,2.779-5.306,4.295-5.306,4.295l-0.07,0.013c0.474,2.434,1.008,5.508,1.333,6.809c0.505,2.021,3.285-0.758,4.295-2.021
				c1.011-1.263,4.801-6.57,4.043-10.107c-0.758-3.538-3.032-9.854-3.032-9.854l4.384,5.779c0.245,0.322,0.755,0.071,0.643-0.318
				C381.042,439.477,379.847,435.399,379.498,434.7z"/>
			<path style="fill:#263238;stroke:#263238;stroke-miterlimit:10;" d="M359.853,448.642c-0.371,1.2-0.849,2.682-1.327,3.998
				c-1.011,2.779-4.296,3.032-6.57,0.505c-2.274-2.527-2.274-6.317-2.274-6.317c-0.758,3.537-1.769,7.075,0,10.107
				c1.769,3.032,6.064,3.285,7.327,1.516C358.227,456.748,360.372,453.4,359.853,448.642z"/>
		</g>
		<g>
			<path style="fill:#92E3A9;stroke:#263238;stroke-linecap:round;stroke-linejoin:round;stroke-miterlimit:10;" d="
				M321.909,224.867c0,0-3.843,1.347-3.677,1.843c0.166,0.497-6.129,31.971-6.129,31.971s-4.473,11.596-3.976,15.737
				c0.497,4.141,3.976,9.111,7.951,9.111s5.467-2.485,6.295-3.644c0.828-1.16,3.644-6.626,3.644-6.626s-0.994,10.436-1.325,11.43
				c-0.331,0.994-1.988,3.644-1.16,4.473c0.828,0.828,3.147,2.154,4.307,2.485s14.081,2.816,25.345,2.154s18.056-3.644,18.056-3.644
				s0.994-3.147,1.325-3.644c0.331-0.497,0.994-1.325,0.994-1.325s10.602-1.16,11.264-1.822c0.663-0.663,2.485-3.479,2.319-7.951
				c-0.166-4.473,1.491-43.236,0.663-44.064c-0.828-0.828-4.708-2.8-4.708-2.8l-19.189-10.724l-28.616,3.751L321.909,224.867z"/>
			<path style="fill:none;stroke:#263238;stroke-miterlimit:10;" d="M322.107,233.115c0,0,3.469,6.36,4.336,10.407"/>
			<path style="fill:none;stroke:#263238;stroke-linecap:round;stroke-linejoin:round;stroke-miterlimit:10;" d="M314.687,261.156
				c0,0,4.529,0.578,6.263,2.987"/>
			<path style="fill:none;stroke:#263238;stroke-linecap:round;stroke-linejoin:round;stroke-miterlimit:10;" d="M319.602,260.867
				c0,0,2.216,1.156,2.698,2.216"/>
			<path style="fill:none;stroke:#263238;stroke-linecap:round;stroke-linejoin:round;stroke-miterlimit:10;" d="M310.28,267.13
				c0,0,1.822-3.644,4.638-4.141c2.816-0.497,6.792,2.154,6.792,2.154l2.319-0.828l2.982,6.129l-0.994,2.816"/>
			<path style="fill:none;stroke:#263238;stroke-linecap:round;stroke-linejoin:round;stroke-miterlimit:10;" d="M380.221,235.147
				c0,0-2.491,5.637-3.277,7.472"/>
			
				<line style="fill:none;stroke:#263238;stroke-linecap:round;stroke-linejoin:round;stroke-miterlimit:10;" x1="373.56" y1="285.187" x2="363.921" y2="276.083"/>
			
				<line style="fill:none;stroke:#263238;stroke-linecap:round;stroke-linejoin:round;stroke-miterlimit:10;" x1="369.784" y1="283.843" x2="360.126" y2="278.842"/>
			
				<line style="fill:none;stroke:#263238;stroke-linecap:round;stroke-linejoin:round;stroke-miterlimit:10;" x1="332.533" y1="292.121" x2="358.057" y2="289.362"/>
			<path style="fill:none;stroke:#263238;stroke-linecap:round;stroke-linejoin:round;stroke-miterlimit:10;" d="M353.745,231.76
				c0,0-2.932,28.801-3.104,30.353"/>
			
				<line style="fill:none;stroke:#263238;stroke-linecap:round;stroke-linejoin:round;stroke-miterlimit:10;" x1="349.089" y1="273.323" x2="348.227" y2="282.809"/>
		</g>
		<polygon style="fill:#FFFFFF;stroke:#263238;stroke-miterlimit:10;" points="365.703,213.042 363.162,219.469 354.792,229.035 
			347.318,219.17 347.933,206.714 357.333,215.284 		"/>
		<g>
			<path style="fill:#263238;stroke:#263238;stroke-miterlimit:10;" d="M358.089,173.58c0,0-14.726,5.332-16.757,9.521
				c-2.031,4.189-3.935,11.806-3.935,12.314c0,0.508-6.982,3.301-8.379,5.459c-1.396,2.158,0.127,8.506,0,10.283
				c-0.127,1.777-6.601,3.809-7.236,7.744c-0.635,3.935,0.127,5.967,0.127,5.967l11.298-1.777c0,0,7.363,2.92,11.299,1.396
				c3.935-1.523,4.316-9.14,4.062-11.679s-0.635-6.094-0.635-6.094l5.205-14.726l11.806-3.555l7.49,6.982l-6.881,18.075
				c0,0-2.174,4.388-1.794,5.53c0.381,1.143,3.85,2.292,3.85,2.292l15.488,7.236c0,0,0.635-1.65,0.381-3.682
				c-0.254-2.031-3.555-6.347-3.555-7.617s4.316-6.221,2.285-10.664c-2.031-4.443-4.189-6.855-5.332-9.14
				c-1.142-2.285,1.016-6.601-1.27-12.187s-9.775-10.41-11.806-11.552C361.771,172.564,358.089,173.58,358.089,173.58z"/>
			<path style="fill:#FFFFFF;stroke:#263238;stroke-miterlimit:10;" d="M363.421,183.863c0,0-11.425,5.078-12.314,7.49
				c-0.889,2.412-3.301,13.583-3.174,15.361c0.127,1.777,7.744,10.918,9.267,11.172s9.348-4.276,10.745-5.292
				c1.397-1.016,6.013-16.29,5.886-18.702C373.704,191.48,364.691,183.99,363.421,183.863z"/>
			<path style="fill:none;stroke:#263238;stroke-miterlimit:10;" d="M350.99,193.33c7.783-2.075,12.431-9.467,12.431-9.467
				s5.729,10.246,10.917,11.802"/>
			<path style="fill:none;stroke:#263238;stroke-miterlimit:10;" d="M363.421,183.863c0,0-11.394,9.467-15.285,10.246"/>
			<path style="fill:none;stroke:#263238;stroke-linecap:round;stroke-linejoin:round;stroke-miterlimit:10;" d="M363.675,206.587
				c0,0-1.777,1.396-3.555,0.889"/>
			<path style="fill:none;stroke:#263238;stroke-linecap:round;stroke-linejoin:round;stroke-miterlimit:10;" d="M355.804,208.364
				c0,0,2.666,3.428,7.236,1.396"/>
			<path style="fill:none;stroke:#263238;stroke-linecap:round;stroke-linejoin:round;stroke-miterlimit:10;" d="M360.12,196.177
				c0,0-3.174-2.158-6.22-0.762"/>
			<path style="fill:none;stroke:#263238;stroke-linecap:round;stroke-linejoin:round;stroke-miterlimit:10;" d="M365.96,196.938
				c0,0,3.555-1.396,5.205,0.254"/>
			<path style="fill:#263238;" d="M357.829,199.974c-0.083,0.767-0.63,1.337-1.222,1.273c-0.592-0.064-1.006-0.737-0.923-1.504
				c0.083-0.767,0.63-1.337,1.222-1.273C357.498,198.534,357.912,199.207,357.829,199.974z"/>
			<path style="fill:#263238;" d="M367.858,201.497c-0.083,0.767-0.63,1.337-1.222,1.273c-0.592-0.064-1.006-0.737-0.923-1.504
				c0.083-0.767,0.63-1.337,1.222-1.273C367.527,200.057,367.941,200.73,367.858,201.497z"/>
		</g>
		<polygon style="fill:#92E3A9;stroke:#263238;stroke-linecap:round;stroke-linejoin:round;stroke-miterlimit:10;" points="
			343.133,224.7 347.617,232.622 353.297,226.942 347.318,219.17 		"/>
		<polygon style="fill:#92E3A9;stroke:#263238;stroke-linecap:round;stroke-linejoin:round;stroke-miterlimit:10;" points="
			356.884,227.241 360.92,233.071 367.61,221.313 363.91,217.825 		"/>
		<g>
			<polygon style="fill:#FFFFFF;stroke:#263238;stroke-miterlimit:10;" points="337.968,266.745 329.18,266.745 328.081,246.413 
				339.067,246.413 			"/>
			<rect x="326.925" y="244.678" style="fill:#263238;stroke:#263238;stroke-miterlimit:10;" width="13.105" height="3.083"/>
			<rect x="328.756" y="243.233" style="fill:#263238;stroke:#263238;stroke-miterlimit:10;" width="9.636" height="1.446"/>
		</g>
		<g>
			<path style="fill:#FFFFFF;stroke:#263238;stroke-miterlimit:10;" d="M327.657,268.566c-0.014,0.058-0.025,0.1-0.032,0.121
				c-0.55,1.561-1.922,2.614-3.577,2.751c-0.866,0.072-1.778-0.179-2.406-0.78c-0.634-0.607-0.921-1.499-1.011-2.372
				c-0.22-2.128,0.118-2.996,1.42-4.54c0.417-0.495,2.033-1.781,2.115-2.423l0.894-7.022c0,0,8.717-1.99,9.476-1.895
				c0.758,0.095,0.948,0.853,0.758,1.421c-0.189,0.568-1.516,0.853-1.8,0.947c-0.284,0.095-4.548,1.137-4.548,1.137l-1.516,1.8
				c0,0,1.99-0.948,2.274-0.948c0.284,0,5.022-0.663,5.591-0.758c0.569-0.095,1.327,0.663,0.948,1.421
				c-0.379,0.758-0.663,0.948-0.948,0.948s-5.022,0.853-5.022,0.853l-2.653,2.274c0,0,3.601-1.137,3.98-1.137
				c0.379,0,3.695-0.095,3.79,0.474c0.095,0.569-0.095,1.232-0.758,1.421c-0.663,0.19-3.222,0.569-3.222,0.569l-2.843,1.516h2.748
				c0,0,2.653,0.853,3.222,0.948c0.569,0.095,0.948,0.379,0.19,1.232c-0.758,0.852-6.651,0.17-6.658,0.17
				C328.033,266.69,327.764,268.112,327.657,268.566z"/>
		</g>
		<g>
			<path style="fill:#92E3A9;stroke:#263238;stroke-linecap:round;stroke-linejoin:round;stroke-miterlimit:10;" d="
				M373.622,264.494l-1.885,2.474c0,0,0,14.959,0.589,16.255c0.589,1.296,5.183,4.712,7.656,4.712s7.303-5.654,7.539-6.596
				c0.235-0.942-6.125-19.2-6.007-19.671c0.118-0.471-0.589-1.06-1.414-1.06C379.276,260.607,373.622,264.494,373.622,264.494z"/>
			<path style="fill:#FFFFFF;stroke:#263238;stroke-miterlimit:10;" d="M380.149,255.557l0.305,6.345c0,0-0.353,2.591-2.003,3.651
				c-1.649,1.06-3.887,1.06-3.887,1.06l-1.06-2.12l-1.649-1.649L380.149,255.557z"/>
			<polygon style="fill:#263238;stroke:#263238;stroke-miterlimit:10;" points="382.056,246.944 370.128,244.454 362.656,264.378 
				372.749,266.213 			"/>
			<g>
				<path style="fill:#FFFFFF;stroke:#263238;stroke-miterlimit:10;" d="M380.416,252.005c0,0-7.993,0.355-8.081,0.977
					c-0.089,0.622,0.178,1.421,0.444,1.51c0.266,0.089,7.371,1.066,7.371,1.066s1.954-0.444,1.865-2.043
					C381.926,251.916,380.416,252.005,380.416,252.005z"/>
				<path style="fill:#FFFFFF;stroke:#263238;stroke-miterlimit:10;" d="M375.887,255.113c0,0-7.016-0.799-7.371-0.355
					c-0.355,0.444-0.71,1.066,0.355,1.51c1.066,0.444,7.46,2.22,7.993,2.22c0.533,0,2.043-0.444,2.487-1.332
					c0.444-0.888,0.178-1.421,0.178-1.421L375.887,255.113z"/>
				<path style="fill:#FFFFFF;stroke:#263238;stroke-miterlimit:10;" d="M372.246,257.422c0,0-5.329-1.066-5.595-0.533
					c-0.266,0.533-0.355,1.421,0.178,1.776c0.533,0.355,7.638,2.309,8.082,2.487s1.51-0.355,1.865-1.066
					c0.355-0.71,0.089-1.598,0.089-1.598L372.246,257.422z"/>
				<path style="fill:#FFFFFF;stroke:#263238;stroke-miterlimit:10;" d="M372.423,260.53c0,0-3.996-0.799-4.174-0.355
					c-0.178,0.444-0.267,1.421,0.533,1.687c0.799,0.266,5.417,2.131,6.216,1.598c0.799-0.533,0.533-1.954,0.533-1.954
					L372.423,260.53z"/>
			</g>
		</g>
	</g>
</g>
<g id="Speech_Bubble">
	<g>
		<path style="fill:#263238;stroke:#263238;stroke-linecap:round;stroke-linejoin:round;stroke-miterlimit:10;" d="M396.276,143.668
			h36.271c3.393,0,6.144,2.751,6.144,6.145v24.574c0,3.394-2.751,6.145-6.144,6.145h-21.292l-9.745,13.715v-13.715h-5.233
			c-3.393,0-6.145-2.751-6.145-6.145v-24.574C390.131,146.419,392.882,143.668,396.276,143.668z"/>
		<g>
			<g>
				<path style="fill:#92E3A9;" d="M411.941,175.428c-1.397-0.055-2.711-0.774-3.511-1.924l-6.59-9.456
					c-0.688-0.986-0.949-2.181-0.738-3.364c0.211-1.183,0.871-2.213,1.857-2.9c0.758-0.529,1.647-0.808,2.568-0.808
					c1.474,0,2.854,0.72,3.695,1.928l3.194,4.583l13.017-15.834c0.858-1.044,2.127-1.642,3.479-1.642
					c1.038,0,2.052,0.364,2.856,1.024c1.916,1.576,2.193,4.417,0.618,6.334l-16.789,20.423c-0.859,1.044-2.126,1.642-3.477,1.642
					L411.941,175.428z"/>
				<path style="fill:#263238;" d="M428.913,147.009c0.782,0,1.569,0.261,2.22,0.796c1.493,1.227,1.709,3.433,0.481,4.926
					l-16.789,20.423c-0.667,0.811-1.659,1.277-2.704,1.277c-0.046,0-0.093-0.001-0.139-0.003c-1.095-0.044-2.106-0.597-2.732-1.496
					l-6.59-9.456c-1.105-1.586-0.716-3.768,0.87-4.873c0.609-0.425,1.307-0.629,1.998-0.629c1.106,0,2.195,0.523,2.875,1.499
					l3.949,5.666l13.854-16.854C426.9,147.444,427.903,147.009,428.913,147.009 M428.914,145.009L428.914,145.009
					c-1.652,0-3.202,0.731-4.251,2.007l-12.179,14.815l-2.44-3.5c-1.027-1.475-2.715-2.356-4.515-2.356
					c-1.128,0-2.214,0.342-3.141,0.988c-1.205,0.84-2.011,2.099-2.269,3.545c-0.258,1.446,0.062,2.907,0.902,4.112l6.59,9.456
					c0.978,1.404,2.583,2.283,4.294,2.351c0.068,0.003,0.144,0.005,0.218,0.005c1.651,0,3.199-0.731,4.248-2.007l16.79-20.424
					c1.926-2.342,1.586-5.815-0.756-7.741C431.423,145.453,430.183,145.009,428.914,145.009L428.914,145.009z"/>
			</g>
		</g>
	</g>
</g>
</svg>
