<svg width="710" height="454" viewBox="0 0 710 454" fill="none" xmlns="http://www.w3.org/2000/svg">
<path d="M708.878 395.261C700.664 348.969 660.347 316.859 615.544 316.859C617.039 315.365 617.784 313.875 618.529 313.125C628.982 297.442 633.461 278.032 629.726 259.365C628.982 257.125 628.232 254.886 625.992 253.391C623.752 251.896 621.513 251.151 618.523 251.896L544.602 266.084C525.935 269.819 510.253 280.272 499.055 295.948C496.816 299.683 495.321 302.667 493.081 306.401C488.602 297.443 483.373 288.48 477.399 280.265C465.451 264.583 443.8 257.864 425.133 265.333L365.399 288.479C378.836 261.599 386.305 230.984 386.305 199.624C386.305 189.171 385.56 178.717 384.066 168.264C378.092 132.425 359.426 101.811 329.56 81.6493C298.946 60.7426 260.123 53.2746 224.279 61.4879C217.56 62.9827 210.842 63.7276 203.372 64.4724C204.867 40.5763 213.825 25.6443 228.758 18.1803C233.237 15.9407 235.476 9.96675 233.237 5.48768C230.997 0.258481 225.023 -1.23113 220.544 1.00847C198.143 11.4615 185.451 33.1125 183.956 65.2218C176.487 64.477 169.024 63.727 162.305 62.2374C125.717 54.0238 86.8935 61.4926 57.0242 82.3987C27.1602 102.56 8.49349 133.169 2.51882 169.013C0.279222 183.945 -0.465582 198.877 0.279218 213.816C5.50842 290.723 55.5339 356.429 124.227 383.309L68.2272 405.711C57.0293 410.19 50.3059 421.393 52.5445 433.336C54.7841 445.284 65.2372 453.497 77.1846 453.497L460.971 452.003C481.133 452.003 498.305 438.565 504.278 419.148C506.517 410.934 508.012 401.976 508.757 394.508C526.678 416.159 552.809 428.857 581.184 428.857C587.158 428.857 593.132 428.113 599.105 427.362L702.146 407.951C704.386 407.206 706.626 406.456 708.12 404.216C708.876 400.487 709.62 398.247 708.876 395.258L708.878 395.261ZM133.197 77.9274C141.411 77.9274 150.369 79.4222 157.837 80.9118C169.035 83.1514 180.983 84.6462 192.187 84.6462C204.135 84.6462 215.332 83.1514 226.536 80.9118C238.484 77.9274 251.176 77.1774 263.124 78.6722L249.687 92.1095C248.192 93.6043 246.702 96.5888 246.702 98.8284V127.203H218.328C216.088 127.203 213.099 128.698 211.609 130.187L191.448 150.349L171.286 130.187C169.791 128.693 167.552 127.203 164.567 127.203L137.682 127.208V98.8336C137.682 95.8492 136.187 93.6043 134.698 92.1147L121.26 78.6774C125.734 77.9274 129.468 77.9274 133.197 77.9274ZM18.9575 212.327C17.4627 198.89 18.2127 185.447 20.4523 172.01C24.9315 142.146 42.103 115.265 66.7443 98.0887C76.4526 91.3699 86.9056 86.1409 98.8483 82.4061L119.01 102.567V136.917C119.01 142.146 123.489 146.625 128.718 146.625H163.067L186.963 171.265C188.458 172.76 191.442 174.249 193.682 174.249C195.922 174.249 198.911 172.755 200.401 171.265L224.297 146.625H258.646C263.875 146.625 268.354 142.146 268.354 136.917V102.567L288.516 82.4061C299.714 86.1405 310.917 90.6197 320.62 98.0887C345.26 116.01 362.432 142.141 366.912 172.01C368.407 180.968 369.151 190.677 369.151 200.385C369.151 236.223 358.698 270.573 338.537 299.691L154.11 372.118C80.1887 354.197 24.1887 289.982 18.9634 212.331L18.9575 212.327ZM484.877 413.927C481.893 425.125 472.185 432.594 460.237 433.339H418.425L408.717 381.818C407.222 376.589 402.743 373.604 397.519 373.604C392.29 375.099 389.306 379.578 390.051 384.802L399.009 433.333L192.182 434.078L189.943 423.625C188.448 418.396 183.969 415.411 178.745 415.411C173.516 416.906 170.531 421.385 171.276 426.609L172.771 434.078L77.1975 434.823C73.4631 434.823 71.9683 431.088 71.2235 430.343C71.2235 428.849 70.4787 425.114 74.9579 424.369L286.265 341.489L291.494 367.625C292.989 372.105 296.723 375.839 301.202 375.839H302.697C307.926 374.344 310.91 369.865 310.166 364.641L304.192 334.777L432.618 284.75C435.603 283.256 438.592 283.256 441.577 283.256C449.79 283.256 457.259 286.99 461.738 293.709C488.613 326.569 496.825 372.115 484.877 413.927ZM505.784 337.021C505.784 326.568 508.769 316.114 514.743 307.157C522.956 295.959 534.904 287.745 548.341 284.755L611.811 272.808C611.811 283.261 608.826 293.714 602.852 302.672C594.639 313.869 582.691 322.084 569.254 325.073L505.784 337.021ZM594.639 407.209C556.56 414.678 519.972 391.526 508.024 355.687L600.612 337.766C638.691 330.297 675.279 353.449 687.227 389.287L594.639 407.209Z" fill="#3B8056"/>
</svg>
